<?xml version="1.0" encoding="UTF-8"?>
<svg version="1.1" xmlns="http://www.w3.org/2000/svg" width="582" height="595">
<path d="M0 0 C1.23500244 0.41556152 2.47000488 0.83112305 3.74243164 1.25927734 C5.05245581 1.71261057 6.36226658 2.1665609 7.671875 2.62109375 C9.01731318 3.0807785 10.36293631 3.53992227 11.70874023 3.99853516 C15.618776 5.33588329 19.52050756 6.69617071 23.421875 8.05859375 C24.46939941 8.42033691 25.51692383 8.78208008 26.59619141 9.15478516 C29.23061245 10.06758696 31.85884703 10.99556421 34.484375 11.93359375 C35.23170898 12.19470947 35.97904297 12.4558252 36.74902344 12.72485352 C40.97989105 14.27547741 43.94145115 16.25625248 47.421875 19.05859375 C49.47110478 19.49265468 49.47110478 19.49265468 51.609375 19.37109375 C57.5944641 19.75067905 62.54290608 21.87930446 68.02954102 24.12158203 C74.97303747 26.94356073 82.01930455 29.31669016 89.1652832 31.57275391 C103.30059044 36.12668627 103.30059044 36.12668627 107.421875 41.05859375 C108.60779152 47.11011933 106.89523426 52.80563312 104.7890625 58.43359375 C104.51474396 59.20179443 104.24042542 59.96999512 103.95779419 60.76147461 C103.08407264 63.19887165 102.19107308 65.6286444 101.296875 68.05859375 C100.72003437 69.65577396 100.14450426 71.2534281 99.5703125 72.8515625 C98.43217824 76.01420426 97.28683475 79.17408405 96.13574219 82.33203125 C93.50852832 89.55433346 90.96709914 96.80708422 88.421875 104.05859375 C89.03717575 104.05193192 89.6524765 104.04527008 90.28642273 104.03840637 C96.69406913 103.97200379 103.10161767 103.9267726 109.50952148 103.89379883 C111.9005124 103.87871832 114.29147568 103.85825098 116.68237305 103.83227539 C120.12034935 103.79586069 123.55795969 103.77885976 126.99609375 103.765625 C128.06397629 103.75014114 129.13185883 103.73465729 130.23210144 103.71870422 C139.7339917 103.71655258 139.7339917 103.71655258 143.421875 107.05859375 C146.23627497 111.22309841 145.75275874 115.64646422 145.734375 120.49609375 C145.75048828 121.34236328 145.76660156 122.18863281 145.78320312 123.06054688 C145.78693782 127.82975265 145.63913745 131.24641172 142.421875 135.05859375 C141.761875 135.05859375 141.101875 135.05859375 140.421875 135.05859375 C142.97535177 137.71327539 145.7522707 139.87658529 148.703125 142.0703125 C153.86173966 148.03789173 153.85666057 155.33267823 153.81005859 162.80151367 C153.81794403 164.37129723 153.81794403 164.37129723 153.82598877 165.97279358 C153.8391299 169.4117043 153.83047323 172.85014756 153.8203125 176.2890625 C153.82233446 178.68703805 153.82524692 181.085013 153.82901001 183.48298645 C153.833425 188.49872719 153.82702698 193.51430727 153.81298828 198.5300293 C153.79586936 204.95950905 153.80576022 211.38861384 153.82370567 217.81807995 C153.83454201 222.76543508 153.83109829 227.71270117 153.8233223 232.66005898 C153.82132132 235.03114173 153.82377594 237.40223258 153.83076096 239.77330589 C153.83837578 243.08370809 153.82677134 246.39350066 153.81005859 249.70385742 C153.81613129 250.68319244 153.82220398 251.66252747 153.82846069 252.67153931 C153.78250631 257.58255832 153.71883008 261.12312218 150.421875 265.05859375 C143.56257982 268.84708954 135.03371885 270.40936092 127.421875 272.05859375 C126.51953125 272.26613281 125.6171875 272.47367187 124.6875 272.6875 C106.1662578 276.26660491 86.86319885 274.60149934 68.59643555 270.53930664 C67.52002808 270.30135376 67.52002808 270.30135376 66.421875 270.05859375 C65.60396484 269.8582251 64.78605469 269.65785645 63.94335938 269.45141602 C61.23540553 269.02954366 59.36235694 269.23798838 56.69140625 269.80078125 C55.80517578 269.97996094 54.91894531 270.15914063 54.00585938 270.34375 C52.63397461 270.63572266 52.63397461 270.63572266 51.234375 270.93359375 C39.19968105 273.44623684 27.72329352 274.2661057 15.421875 274.24609375 C14.3924176 274.24518738 14.3924176 274.24518738 13.34216309 274.2442627 C2.59515354 274.21861351 -7.96769699 273.87973254 -18.578125 272.05859375 C-19.8158667 271.84928223 -19.8158667 271.84928223 -21.07861328 271.63574219 C-23.6886008 271.17900649 -26.28982166 270.68988347 -28.890625 270.18359375 C-29.68629883 270.03438477 -30.48197266 269.88517578 -31.30175781 269.73144531 C-35.99296211 268.7422263 -39.0669089 267.52226921 -42.578125 264.05859375 C-43.88288118 261.44908139 -43.69114072 259.5315809 -43.67578125 256.61328125 C-43.67255859 255.53691406 -43.66933594 254.46054687 -43.66601562 253.3515625 C-43.65344727 251.65966797 -43.65344727 251.65966797 -43.640625 249.93359375 C-43.63611328 248.79792969 -43.63160156 247.66226563 -43.62695312 246.4921875 C-43.61514115 243.68093737 -43.59867007 240.86979145 -43.578125 238.05859375 C-45.26808594 237.66220703 -45.26808594 237.66220703 -46.9921875 237.2578125 C-51.74734227 236.06641338 -56.33640594 234.51119596 -60.953125 232.87109375 C-61.81292969 232.56574707 -62.67273438 232.26040039 -63.55859375 231.94580078 C-66.23401325 230.98952437 -68.90602133 230.02409041 -71.578125 229.05859375 C-72.44083008 228.75195801 -73.30353516 228.44532227 -74.19238281 228.12939453 C-76.66089293 227.24778378 -79.12023824 226.34434441 -81.578125 225.43359375 C-82.69840088 225.03684448 -82.69840088 225.03684448 -83.84130859 224.63208008 C-88.30410956 222.94137502 -91.14339727 221.38277164 -93.578125 217.05859375 C-93.94182988 212.47534718 -93.11827393 209.0415642 -91.55859375 204.74609375 C-91.1188623 203.52108154 -90.67913086 202.29606934 -90.22607422 201.03393555 C-89.7394443 199.70875312 -89.25262277 198.38364104 -88.765625 197.05859375 C-88.26498713 195.67452436 -87.76516324 194.29016031 -87.26611328 192.90551758 C-85.71707534 188.61818687 -84.14960783 184.33774014 -82.578125 180.05859375 C-82.33479431 179.39535095 -82.09146362 178.73210815 -81.84075928 178.04876709 C-79.75512475 172.36436283 -77.66661621 166.68101936 -75.57177734 161 C-72.19298337 151.81258168 -68.95681791 142.58218693 -65.78076172 133.32299805 C-63.45065889 126.54105151 -61.04874801 119.79055319 -58.578125 113.05859375 C-55.76090515 105.3791741 -53.04628358 97.67031697 -50.390625 89.93359375 C-45.4743254 75.63496077 -40.32521807 61.42306364 -35.1680603 47.21005249 C-33.07627402 41.44215203 -30.99873839 35.66922226 -28.92578125 29.89453125 C-28.03527436 27.41683334 -27.14456351 24.93920886 -26.25378418 22.46160889 C-25.68224989 20.87047069 -25.11151913 19.27904363 -24.54162598 17.68731689 C-23.7500492 15.47692798 -22.95543145 13.2676542 -22.16015625 11.05859375 C-21.92740494 10.40611664 -21.69465363 9.75363953 -21.45484924 9.08139038 C-18.42330225 0.68465098 -18.42330225 0.68465098 -15.890625 -1.19140625 C-10.39010784 -2.97535776 -5.3254551 -1.81379286 0 0 Z " fill="#76B0FD" transform="translate(266.578125,225.94140625)"/>
<path d="M0 0 C1.23500244 0.41556152 2.47000488 0.83112305 3.74243164 1.25927734 C5.05245581 1.71261057 6.36226658 2.1665609 7.671875 2.62109375 C9.01731318 3.0807785 10.36293631 3.53992227 11.70874023 3.99853516 C15.618776 5.33588329 19.52050756 6.69617071 23.421875 8.05859375 C24.46939941 8.42033691 25.51692383 8.78208008 26.59619141 9.15478516 C29.23061245 10.06758696 31.85884703 10.99556421 34.484375 11.93359375 C35.23170898 12.19470947 35.97904297 12.4558252 36.74902344 12.72485352 C40.97989105 14.27547741 43.94145115 16.25625248 47.421875 19.05859375 C49.47110478 19.49265468 49.47110478 19.49265468 51.609375 19.37109375 C57.5944641 19.75067905 62.54290608 21.87930446 68.02954102 24.12158203 C74.97303747 26.94356073 82.01930455 29.31669016 89.1652832 31.57275391 C103.30059044 36.12668627 103.30059044 36.12668627 107.421875 41.05859375 C108.60779152 47.11011933 106.89523426 52.80563312 104.7890625 58.43359375 C104.51474396 59.20179443 104.24042542 59.96999512 103.95779419 60.76147461 C103.08407264 63.19887165 102.19107308 65.6286444 101.296875 68.05859375 C100.72003437 69.65577396 100.14450426 71.2534281 99.5703125 72.8515625 C98.43179121 76.01585478 97.28479108 79.17687808 96.13183594 82.3359375 C94.96226883 85.54994869 93.81606393 88.7710216 92.68847656 92 C92.41335236 92.78753662 92.13822815 93.57507324 91.85476685 94.38647461 C91.33187987 95.8877428 90.81133164 97.38982817 90.29342651 98.89282227 C88.53107811 103.94939064 88.53107811 103.94939064 87.421875 105.05859375 C85.70000695 105.15554747 83.974574 105.19061023 82.25 105.19921875 C81.19296875 105.21855469 80.1359375 105.23789062 79.046875 105.2578125 C76.81267853 105.29142888 74.57819782 105.30987741 72.34375 105.3125 C65.88361299 105.42434836 65.88361299 105.42434836 60.20703125 108.2421875 C58.23458824 111.35407242 57.74152972 113.2148132 57.609375 116.87109375 C57.56167969 117.84691406 57.51398438 118.82273437 57.46484375 119.828125 C57.45066406 120.56417969 57.43648437 121.30023438 57.421875 122.05859375 C45.96434643 122.46617382 37.61179825 121.5454755 27.421875 116.05859375 C33.12980468 122.67979217 40.10922707 123.56224118 48.359375 124.24609375 C49.23400391 124.32794922 50.10863281 124.40980469 51.00976562 124.49414062 C53.14620223 124.69260741 55.28393384 124.87705029 57.421875 125.05859375 C57.6072583 125.60708984 57.7926416 126.15558594 57.98364258 126.72070312 C58.23782959 127.44064453 58.4920166 128.16058594 58.75390625 128.90234375 C59.00116455 129.61583984 59.24842285 130.32933594 59.50317383 131.06445312 C60.82471299 133.93299734 62.81515721 135.36774978 65.421875 137.05859375 C64.64263672 137.38730469 64.64263672 137.38730469 63.84765625 137.72265625 C59.99806704 139.47311641 57.30315616 140.85303295 54.859375 144.37109375 C54.055 145.25796875 53.250625 146.14484375 52.421875 147.05859375 C46.06701097 146.75315302 39.90249172 144.67797142 33.796875 142.99609375 C32.67619629 142.69098877 31.55551758 142.38588379 30.40087891 142.0715332 C24.11265551 140.35620851 17.83000878 138.62057682 11.546875 136.88671875 C10.89756012 136.7075441 10.24824524 136.52836945 9.57925415 136.34376526 C6.42505949 135.47299211 3.2714609 134.60014539 0.11865234 133.72436523 C-12.04161107 130.06930472 -12.04161107 130.06930472 -24.578125 129.05859375 C-25.08503084 131.11940736 -25.58337119 133.18232901 -26.078125 135.24609375 C-26.3565625 136.39464844 -26.635 137.54320312 -26.921875 138.7265625 C-27.49307885 141.62678204 -27.71096279 144.1195576 -27.578125 147.05859375 C-25.598125 148.04859375 -23.618125 149.03859375 -21.578125 150.05859375 C-21.578125 151.04859375 -21.578125 152.03859375 -21.578125 153.05859375 C-44.0032519 153.76100492 -44.0032519 153.76100492 -53.578125 147.05859375 C-49.25818512 152.57024118 -44.39055179 154.00546497 -37.578125 155.05859375 C-30.77683512 155.51391023 -24.10671955 155.61513509 -17.453125 153.99609375 C-13.56312694 153.05496519 -12.30693146 153.14832629 -8.578125 154.05859375 C-7.55976563 154.28417969 -6.54140625 154.50976562 -5.4921875 154.7421875 C-4.40679687 154.99097656 -3.32140625 155.23976563 -2.203125 155.49609375 C-1.12289062 155.74230469 -0.04265625 155.98851562 1.0703125 156.2421875 C3.28583152 156.78186521 5.49132638 157.36470019 7.68359375 157.9921875 C12.38298503 159.3327662 17.11626305 160.50891376 21.859375 161.68359375 C22.78169922 161.91304687 23.70402344 162.1425 24.65429688 162.37890625 C26.90989014 162.93988281 29.16575199 163.49975224 31.421875 164.05859375 C31.421875 164.71859375 31.421875 165.37859375 31.421875 166.05859375 C32.47375 166.01734375 33.525625 165.97609375 34.609375 165.93359375 C38.16197673 166.0500725 40.27054141 166.53067443 43.421875 168.05859375 C43.421875 168.38859375 43.421875 168.71859375 43.421875 169.05859375 C42.5346022 169.06890121 41.64732941 169.07920868 40.73316956 169.08982849 C32.38935929 169.187628 24.04562285 169.2901169 15.70193577 169.39793301 C11.4119129 169.45320111 7.12188326 169.50662718 2.83178711 169.5559082 C-1.30497936 169.60349461 -5.44166036 169.65583507 -9.57832527 169.7115345 C-11.16002347 169.73198409 -12.74174512 169.75069278 -14.32348442 169.76766777 C-16.53141678 169.79165445 -18.7391862 169.82171631 -20.94702148 169.85327148 C-22.20610825 169.86881577 -23.46519501 169.88436005 -24.76243591 169.90037537 C-27.48110041 169.73946179 -27.48110041 169.73946179 -28.578125 171.05859375 C-28.73467527 172.54498367 -28.82879443 174.03808502 -28.89453125 175.53125 C-28.93642578 176.43037109 -28.97832031 177.32949219 -29.02148438 178.25585938 C-29.06080078 179.20138672 -29.10011719 180.14691406 -29.140625 181.12109375 C-29.20540039 182.54518555 -29.20540039 182.54518555 -29.27148438 183.99804688 C-29.37791776 186.35140728 -29.47993508 188.70487729 -29.578125 191.05859375 C-31.14443219 191.08587671 -32.71088044 191.10511671 -34.27734375 191.12109375 C-35.14963623 191.13269531 -36.02192871 191.14429688 -36.9206543 191.15625 C-39.53437501 191.06020147 -41.85096801 190.66216193 -44.390625 190.05859375 C-53.44737435 188.07920985 -63.11734954 187.83788654 -71.578125 192.05859375 C-72.568125 193.04859375 -72.568125 193.04859375 -73.578125 194.05859375 C-73.50431921 198.04410629 -73.26191193 200.28933346 -70.578125 203.30859375 C-61.58173189 208.55648973 -52.78915043 208.62955907 -42.578125 209.05859375 C-42.578125 218.62859375 -42.578125 228.19859375 -42.578125 238.05859375 C-52.71285584 235.80643134 -52.71285584 235.80643134 -56.19921875 234.578125 C-57.37194336 234.16796143 -57.37194336 234.16796143 -58.56835938 233.74951172 C-59.37595703 233.45963379 -60.18355469 233.16975586 -61.015625 232.87109375 C-61.87091797 232.56574707 -62.72621094 232.26040039 -63.60742188 231.94580078 C-65.38135305 231.30847783 -67.15397763 230.66750668 -68.92529297 230.02294922 C-70.67744322 229.3860089 -72.43165512 228.75470828 -74.18798828 228.12939453 C-76.65783178 227.24747645 -79.11868809 226.3440742 -81.578125 225.43359375 C-82.69852173 225.03684448 -82.69852173 225.03684448 -83.84155273 224.63208008 C-88.30420454 222.94123606 -91.14343303 221.38270813 -93.578125 217.05859375 C-93.94182988 212.47534718 -93.11827393 209.0415642 -91.55859375 204.74609375 C-91.1188623 203.52108154 -90.67913086 202.29606934 -90.22607422 201.03393555 C-89.7394443 199.70875312 -89.25262277 198.38364104 -88.765625 197.05859375 C-88.26498713 195.67452436 -87.76516324 194.29016031 -87.26611328 192.90551758 C-85.71707534 188.61818687 -84.14960783 184.33774014 -82.578125 180.05859375 C-82.33479431 179.39535095 -82.09146362 178.73210815 -81.84075928 178.04876709 C-79.75512475 172.36436283 -77.66661621 166.68101936 -75.57177734 161 C-72.19298337 151.81258168 -68.95681791 142.58218693 -65.78076172 133.32299805 C-63.45065889 126.54105151 -61.04874801 119.79055319 -58.578125 113.05859375 C-55.76090515 105.3791741 -53.04628358 97.67031697 -50.390625 89.93359375 C-45.4743254 75.63496077 -40.32521807 61.42306364 -35.1680603 47.21005249 C-33.07627402 41.44215203 -30.99873839 35.66922226 -28.92578125 29.89453125 C-28.03527436 27.41683334 -27.14456351 24.93920886 -26.25378418 22.46160889 C-25.68224989 20.87047069 -25.11151913 19.27904363 -24.54162598 17.68731689 C-23.7500492 15.47692798 -22.95543145 13.2676542 -22.16015625 11.05859375 C-21.92740494 10.40611664 -21.69465363 9.75363953 -21.45484924 9.08139038 C-18.42330225 0.68465098 -18.42330225 0.68465098 -15.890625 -1.19140625 C-10.39010784 -2.97535776 -5.3254551 -1.81379286 0 0 Z " fill="#DBE6E8" transform="translate(266.578125,225.94140625)"/>
<path d="M0 0 C2.04940607 0.54584745 4.0988874 1.09141236 6.1484375 1.63671875 C7.1909668 1.91563965 8.23349609 2.19456055 9.30761719 2.48193359 C12.31848319 3.28091691 15.33352122 4.06064207 18.3515625 4.83203125 C30.81295267 8.02234004 43.14712074 11.51634781 55.4375 15.3125 C54.9425 17.7875 54.9425 17.7875 54.4375 20.3125 C54.1075 28.2325 53.7775 36.1525 53.4375 44.3125 C35.6175 44.3125 17.7975 44.3125 -0.5625 44.3125 C-0.5625 44.9725 -0.5625 45.6325 -0.5625 46.3125 C17.2575 46.3125 35.0775 46.3125 53.4375 46.3125 C53.4375 49.9425 53.4375 53.5725 53.4375 57.3125 C44.5275 57.3125 35.6175 57.3125 26.4375 57.3125 C26.4375 58.3025 26.4375 59.2925 26.4375 60.3125 C35.3475 60.3125 44.2575 60.3125 53.4375 60.3125 C53.45208252 62.35147461 53.46666504 64.39044922 53.48168945 66.49121094 C53.53203182 73.22880949 53.59862613 79.96617684 53.67321491 86.70354843 C53.71793812 90.78834815 53.75718976 94.87304769 53.78393555 98.95800781 C53.80994936 102.90041787 53.85033761 106.84244281 53.90068626 110.78461456 C53.91736809 112.28844664 53.9288742 113.79234536 53.93511391 115.29625702 C53.94474112 117.40331878 53.97278123 119.50939239 54.00512695 121.61621094 C54.01623001 122.81534119 54.02733307 124.01447144 54.03877258 125.24993896 C54.47129407 128.57206684 55.11613362 129.94428808 57.4375 132.3125 C59.6822661 133.42055199 59.6822661 133.42055199 62.125 134.0625 C62.93324219 134.30484375 63.74148438 134.5471875 64.57421875 134.796875 C65.18910156 134.96703125 65.80398438 135.1371875 66.4375 135.3125 C66.1075 135.9725 65.7775 136.6325 65.4375 137.3125 C63.55493164 137.89086914 63.55493164 137.89086914 61.09765625 138.34765625 C60.19853516 138.51716797 59.29941406 138.68667969 58.37304688 138.86132812 C57.42494141 139.03083984 56.47683594 139.20035156 55.5 139.375 C54.58669922 139.54837891 53.67339844 139.72175781 52.73242188 139.90039062 C41.59991749 141.95671309 30.75376785 142.5184093 19.4375 142.5 C18.75119507 142.49939575 18.06489014 142.4987915 17.35778809 142.49816895 C6.61077854 142.47251976 -3.95207199 142.13363879 -14.5625 140.3125 C-15.38766113 140.17295898 -16.21282227 140.03341797 -17.06298828 139.88964844 C-19.6729758 139.43291274 -22.27419666 138.94378972 -24.875 138.4375 C-25.67067383 138.28829102 -26.46634766 138.13908203 -27.28613281 137.98535156 C-31.97733711 136.99613255 -35.0512839 135.77617546 -38.5625 132.3125 C-39.74519042 129.94711917 -39.6916407 128.52490915 -39.6953125 125.88671875 C-39.69724609 124.95794922 -39.69917969 124.02917969 -39.70117188 123.07226562 C-39.69666016 122.05841797 -39.69214844 121.04457031 -39.6875 120 C-39.68556641 118.95650391 -39.68363281 117.91300781 -39.68164062 116.83789062 C-39.61197045 103.6547446 -39.09251093 90.48383548 -38.5625 77.3125 C-39.58988281 77.35890625 -40.61726563 77.4053125 -41.67578125 77.453125 C-51.00526644 77.74650504 -60.31634769 77.83282739 -67.79296875 71.390625 C-70.34568272 68.39273575 -70.63206076 66.20790253 -70.5625 62.3125 C-67.33996883 58.58644833 -63.36248182 56.99214344 -58.5625 56.3125 C-51.49538697 55.8690733 -44.89037857 56.20456752 -37.99609375 57.80078125 C-33.89384374 58.66337315 -29.73586161 58.97507927 -25.5625 59.3125 C-25.8409375 57.9821875 -25.8409375 57.9821875 -26.125 56.625 C-26.94733316 50.91565832 -26.47516224 44.9868783 -25.5625 39.3125 C-22.75204615 36.50204615 -20.94006244 37.03661886 -17.00146484 36.99365234 C-15.99153221 36.97858391 -15.99153221 36.97858391 -14.9611969 36.96321106 C-12.73195259 36.93227818 -10.50282891 36.91531632 -8.2734375 36.8984375 C-6.72928828 36.87973393 -5.18514935 36.86016113 -3.64102173 36.8397522 C0.42612645 36.7883391 4.4933078 36.74876273 8.56060791 36.71160889 C12.7097602 36.67162657 16.85877342 36.62050798 21.0078125 36.5703125 C29.15094681 36.47344463 37.29414971 36.38907486 45.4375 36.3125 C42.1375 35.6525 38.8375 34.9925 35.4375 34.3125 C35.4375 33.6525 35.4375 32.9925 35.4375 32.3125 C33.97957031 32.12300781 33.97957031 32.12300781 32.4921875 31.9296875 C28.13490189 31.30534039 23.85691945 30.39644364 19.5625 29.4375 C18.76674561 29.26041504 17.97099121 29.08333008 17.15112305 28.90087891 C11.78520819 27.68082774 6.60538419 26.20999528 1.4375 24.3125 C-3.78812057 22.51056187 -7.13897162 22.22779432 -12.5625 23.3125 C-23.32543997 25.3647555 -36.98404936 26.26650665 -46.5703125 20 C-48.25 18.625 -48.25 18.625 -50.5625 16.3125 C-50.2325 15.6525 -49.9025 14.9925 -49.5625 14.3125 C-48 15.2890625 -46.4375 16.265625 -44.875 17.2421875 C-38.67763578 20.11056216 -32.28460657 20.65789765 -25.5625 20.9375 C-24.78777344 20.97617187 -24.01304687 21.01484375 -23.21484375 21.0546875 C-21.33106585 21.14771357 -19.44681744 21.23113175 -17.5625 21.3125 C-17.5625 20.3225 -17.5625 19.3325 -17.5625 18.3125 C-18.34625 18.18875 -19.13 18.065 -19.9375 17.9375 C-22.5625 17.3125 -22.5625 17.3125 -24.5625 15.3125 C-24.1747789 9.23820275 -22.62899053 3.02748338 -20.5625 -2.6875 C-14.98571973 -5.47589013 -5.70633459 -1.54423373 0 0 Z " fill="#6ECDF7" transform="translate(262.5625,357.6875)"/>
<path d="M0 0 C21 0 21 0 27 2 C28.51860046 3.63000488 28.51860046 3.63000488 29.58862305 5.56445312 C29.99293549 6.28060791 30.39724792 6.9967627 30.81381226 7.73461914 C31.20525421 8.48219482 31.59669617 9.22977051 32 10 C32.37782623 10.70954834 32.75565247 11.41909668 33.14492798 12.15014648 C34.31990551 14.40941886 35.45524224 16.68508358 36.58203125 18.96875 C36.99990402 19.80732544 37.41777679 20.64590088 37.84831238 21.5098877 C39.17351847 24.17138378 40.49313879 26.83560247 41.8125 29.5 C42.68517033 31.25539558 43.55821452 33.01060535 44.43164062 34.765625 C51.34271595 48.65952421 51.34271595 48.65952421 54.34912109 54.77734375 C55.06996956 56.23698777 55.79083452 57.69662365 56.51171875 59.15625 C56.83727249 59.82362183 57.16282623 60.49099365 57.49824524 61.17858887 C58.80443484 63.81611602 59.90318627 65.90318627 62 68 C62.55042969 66.81535156 63.10085937 65.63070312 63.66796875 64.41015625 C69.72720987 51.50286734 76.09365114 38.75907195 82.56973267 26.05661011 C83.52318746 24.18564808 84.47466581 22.31367752 85.42416382 20.44070435 C86.77670102 17.77502652 88.1371482 15.11354124 89.5 12.453125 C89.90902054 11.64465622 90.31804108 10.83618744 90.73945618 10.0032196 C91.12449814 9.25611221 91.5095401 8.50900482 91.90625 7.73925781 C92.40608398 6.76076874 92.40608398 6.76076874 92.91601562 5.76251221 C94.67690152 2.89938709 96.12049049 1.2503884 99.38574219 0.32080078 C101.89510691 0.01287164 104.3009016 -0.12927297 106.828125 -0.1328125 C107.70984375 -0.13410156 108.5915625 -0.13539062 109.5 -0.13671875 C110.4075 -0.13285156 111.315 -0.12898438 112.25 -0.125 C113.17296875 -0.12886719 114.0959375 -0.13273437 115.046875 -0.13671875 C115.9234375 -0.13542969 116.8 -0.13414063 117.703125 -0.1328125 C118.50395508 -0.13168457 119.30478516 -0.13055664 120.12988281 -0.12939453 C122 0 122 0 123 1 C123.0954693 2.40411317 123.12188529 3.81299809 123.12025452 5.22035217 C123.12231651 6.58550713 123.12231651 6.58550713 123.12442017 7.97824097 C123.11902725 9.48766769 123.11902725 9.48766769 123.11352539 11.02758789 C123.11367142 12.08111954 123.11381744 13.13465118 123.1139679 14.22010803 C123.11326826 17.720978 123.10547348 21.22179552 123.09765625 24.72265625 C123.09579225 27.14261343 123.09436826 29.56257099 123.09336853 31.98252869 C123.08954192 38.36615024 123.07971041 44.74974921 123.06866455 51.13336182 C123.05845351 57.64163914 123.05387157 64.1499201 123.04882812 70.65820312 C123.03808827 83.43881363 123.02049032 96.21940141 123 109 C115.41 109 107.82 109 100 109 C99.67 86.89 99.34 64.78 99 42 C94.38 51.24 89.76 60.48 85 70 C77.84366577 83.75606469 77.84366577 83.75606469 75 89 C74.65227539 89.65661621 74.30455078 90.31323242 73.94628906 90.98974609 C72.19813749 94.20240876 71.09925389 95.93383074 68 98 C65.0390625 98.37109375 65.0390625 98.37109375 61.625 98.4375 C60.50351563 98.47746094 59.38203125 98.51742187 58.2265625 98.55859375 C54.17661726 97.85745311 52.45468716 96.12011233 50 93 C48.1798552 90.0425104 46.63562562 86.96921311 45.09375 83.859375 C44.64656616 82.97775696 44.19938232 82.09613892 43.73864746 81.18780518 C42.31653346 78.37975365 40.90785323 75.56522416 39.5 72.75 C38.08938991 69.95052613 36.67602147 67.15246629 35.26135254 64.3550415 C34.38460055 62.6190315 33.51063208 60.88161171 32.64001465 59.14251709 C32.23609497 58.3384845 31.83217529 57.5344519 31.41601562 56.70605469 C31.06913696 56.01276062 30.7222583 55.31946655 30.36486816 54.60516357 C28.31736672 50.69703801 26.14265461 46.8567783 24 43 C23.67 64.78 23.34 86.56 23 109 C15.41 109 7.82 109 0 109 C0 73.03 0 37.06 0 0 Z " fill="#000000" transform="translate(128,97)"/>
<path d="M0 0 C1.59423246 0.25698692 3.17841084 0.57665258 4.75610352 0.92089844 C11.1769127 2.15122229 17.38012737 2.28898161 23.90234375 2.265625 C25.10129776 2.26753845 26.30025177 2.2694519 27.53553772 2.27142334 C30.05583915 2.27277645 32.57614775 2.26914153 35.09643555 2.26074219 C38.92317595 2.25004006 42.74944595 2.26066291 46.57617188 2.2734375 C49.03906352 2.27211557 51.50195488 2.26955248 53.96484375 2.265625 C55.65757668 2.27169769 55.65757668 2.27169769 57.38450623 2.27789307 C64.01247392 2.23937286 70.22957732 1.61799599 76.73561096 0.33050537 C77.48285934 0.2214386 78.23010773 0.11237183 79 0 C81.01280161 2.01280161 80.17791614 6.10755475 80.19287109 8.86865234 C80.20513733 10.10522331 80.20513733 10.10522331 80.21765137 11.36677551 C80.24255135 14.10648866 80.25903201 16.84614989 80.2734375 19.5859375 C80.27876118 20.51904377 80.28408485 21.45215004 80.28956985 22.41353226 C80.31631997 27.35120066 80.3356899 32.2888436 80.35009766 37.2265625 C80.36676086 42.33718603 80.4115471 47.44716657 80.4624691 52.55754662 C80.49605781 56.47798437 80.50766582 60.39826789 80.51332474 64.31883621 C80.52005923 66.20318141 80.53533796 68.0875157 80.55921555 69.97172165 C80.59069501 72.60587339 80.59093048 75.23826961 80.58349609 77.87255859 C80.59990143 78.6550145 80.61630676 79.4374704 80.63320923 80.24363708 C80.60800171 82.41903687 80.60800171 82.41903687 80 86 C76.69500664 88.73515659 73.26443788 89.64658741 69.125 90.625 C68.13757813 90.86476563 67.15015625 91.10453125 66.1328125 91.3515625 C58.02414848 93.0299144 50.06824084 93.21881965 41.82446289 93.24023438 C39.59937698 93.24984079 37.37525666 93.28087503 35.15039062 93.3125 C23.21353874 93.4019109 10.63892419 92.94847442 0 87 C-1.77470247 85.22529753 -1.12620861 82.85610047 -1.13552856 80.49247742 C-1.13350433 79.70283096 -1.1314801 78.91318451 -1.12939453 78.09960938 C-1.13114685 77.27201614 -1.13289917 76.44442291 -1.13470459 75.5917511 C-1.13912393 72.84239638 -1.13618483 70.09310543 -1.1328125 67.34375 C-1.13348552 65.44185371 -1.13445552 63.53995751 -1.13571167 61.63806152 C-1.13718875 57.64655745 -1.13503375 53.65507571 -1.13037109 49.66357422 C-1.1246738 44.53509493 -1.12795275 39.40666798 -1.13394356 34.27819061 C-1.13754889 30.34925946 -1.13641072 26.42034082 -1.13381577 22.4914093 C-1.13314642 20.59987888 -1.13397519 18.70834735 -1.13629532 16.81681824 C-1.13882138 14.17797823 -1.13498191 11.53922419 -1.12939453 8.90039062 C-1.13141876 8.11074417 -1.13344299 7.32109772 -1.13552856 6.50752258 C-1.11426251 1.11426251 -1.11426251 1.11426251 0 0 Z " fill="#DAE6E9" transform="translate(328,387)"/>
<path d="M0 0 C7.92 0 15.84 0 24 0 C24 36.63 24 73.26 24 111 C17.73 111 11.46 111 5 111 C3.02 107.535 3.02 107.535 1 104 C0.46632813 104.39832031 -0.06734375 104.79664063 -0.6171875 105.20703125 C-8.01427579 110.46689853 -15.72893539 114.01138887 -25 113 C-33.50122465 111.2842983 -38.95592424 106.78452662 -44.3125 100.125 C-50.95223173 87.82920051 -52.54703582 70.87513168 -48.875 57.375 C-45.23211137 47.76794021 -39.73458071 39.40262924 -30.39453125 34.68359375 C-20.73667348 30.77413652 -12.55597484 31.02520874 -3 35 C-2.01 35.495 -2.01 35.495 -1 36 C-0.67 24.12 -0.34 12.24 0 0 Z M-21 54 C-26.9403125 63.11856887 -26.60175248 73.74606962 -24.8046875 84.09765625 C-23.66572473 88.20566273 -22.14814966 90.16666531 -19 93 C-15.75109227 94.62445387 -12.51027934 94.5697312 -9 94 C-5.74231414 92.44685201 -2.56741969 90.56741969 0 88 C0.08847743 85.47905924 0.11527301 82.98569107 0.09765625 80.46484375 C0.0962413 79.71159317 0.09482635 78.95834259 0.09336853 78.18226624 C0.08775376 75.7673044 0.07519883 73.35243399 0.0625 70.9375 C0.0574869 69.30403779 0.05292366 67.67057414 0.04882812 66.03710938 C0.03777954 62.02470415 0.02050506 58.01236759 0 54 C-1.25434909 53.33715408 -2.51302278 52.68248812 -3.7734375 52.03125 C-4.47388184 51.66580078 -5.17432617 51.30035156 -5.89599609 50.92382812 C-11.81621952 48.32437054 -16.40465949 49.8131342 -21 54 Z " fill="#000000" transform="translate(392,95)"/>
<path d="M0 0 C6.68223469 6.26205361 10.4465325 15.17060101 10.91796875 24.2265625 C10.92441406 25.34804687 10.93085938 26.46953125 10.9375 27.625 C10.95167969 28.75164062 10.96585937 29.87828125 10.98046875 31.0390625 C10.75 34 10.75 34 8.75 37 C6.72518921 37.36076355 6.72518921 37.36076355 4.20849609 37.34057617 C2.79725967 37.34023628 2.79725967 37.34023628 1.35751343 37.33988953 C0.33976837 37.32440567 -0.67797668 37.30892181 -1.7265625 37.29296875 C-2.76694672 37.28872391 -3.80733093 37.28447906 -4.87924194 37.28010559 C-8.21142147 37.26327482 -11.54300241 37.22561422 -14.875 37.1875 C-17.13019962 37.17245887 -19.38540869 37.15876947 -21.640625 37.14648438 C-27.17728855 37.11335699 -32.71360152 37.0631142 -38.25 37 C-37.82633716 38.6062233 -37.38710496 40.20834497 -36.94140625 41.80859375 C-36.57704468 43.14748657 -36.57704468 43.14748657 -36.20532227 44.51342773 C-34.52185416 48.89526332 -31.39776602 50.92611699 -27.25 53 C-18.90242356 53.86057489 -13.05574473 52.82628316 -5.61328125 49.078125 C-3.25 48 -3.25 48 0 47.6875 C4.23098973 49.70683601 7.46977429 52.89122268 9.75 57 C9.6698059 60.10870066 9.29182333 61.46447694 7.0703125 63.66015625 C-5.0514516 71.40341837 -17.91033526 74.68456812 -32.1875 72.3125 C-41.82398614 70.17272124 -50.71951 65.4110163 -56.1640625 57.06640625 C-62.37590604 45.80584214 -64.88963401 33.65421781 -62.12890625 20.875 C-58.66264382 9.53647046 -52.7865062 1.52027588 -42.4375 -4.375 C-28.75574358 -10.47083207 -11.89469233 -9.23640882 0 0 Z M-34.80859375 13.875 C-37.57751263 18.09464994 -37.57751263 18.09464994 -38.25 23 C-29.34 23 -20.43 23 -11.25 23 C-12.09062059 15.87420598 -12.09062059 15.87420598 -16.25 11 C-22.56861641 7.59766809 -30.0510531 8.15164283 -34.80859375 13.875 Z " fill="#000000" transform="translate(324.25,135)"/>
<path d="M0 0 C1.30112228 0.00022659 2.60224457 0.00045319 3.9427948 0.00068665 C5.36331526 0.01600665 6.78383221 0.03165464 8.2043457 0.04760742 C9.65736961 0.05320342 11.11039919 0.0574735 12.56343079 0.06047058 C16.38583025 0.07191922 20.20788715 0.10138618 24.03015137 0.13458252 C28.61728079 0.17068195 33.20452483 0.18444451 37.79175568 0.20194244 C44.75895094 0.23102396 51.72539474 0.28850995 58.69262695 0.34057617 C58.69262695 18.82057617 58.69262695 37.30057617 58.69262695 56.34057617 C51.02085524 60.17646203 39.22275026 58.5238606 30.88012695 58.52807617 C28.98423828 58.54644531 28.98423828 58.54644531 27.05004883 58.56518555 C-0.66530678 58.60775906 -0.66530678 58.60775906 -7.99014282 53.06787109 C-9.71196299 50.81003402 -9.68750576 49.46466914 -9.69555664 46.64135742 C-9.70501312 45.690271 -9.7144696 44.73918457 -9.72421265 43.75927734 C-9.71813995 42.73423096 -9.71206726 41.70918457 -9.70581055 40.65307617 C-9.70868073 39.59902588 -9.7115509 38.54497559 -9.71450806 37.45898438 C-9.71655018 35.22973087 -9.71101003 33.0004595 -9.69848633 30.77124023 C-9.68243535 27.35384149 -9.69833063 23.93762552 -9.7175293 20.52026367 C-9.71554689 18.35619855 -9.71170328 16.19213417 -9.70581055 14.02807617 C-9.71188324 13.00302979 -9.71795593 11.9779834 -9.72421265 10.921875 C-9.71002792 9.49524536 -9.71002792 9.49524536 -9.69555664 8.03979492 C-9.69316986 7.20279053 -9.69078308 6.36578613 -9.68832397 5.50341797 C-9.30737305 3.34057617 -9.30737305 3.34057617 -8.17732239 1.56816101 C-5.43025945 -0.23523159 -3.26761813 -0.01896103 0 0 Z " fill="#D9E5E8" transform="translate(257.307373046875,429.659423828125)"/>
<path d="M0 0 C3.42625103 -0.00995208 6.8519585 -0.04124907 10.27807617 -0.07226562 C12.47664041 -0.07877672 14.6752088 -0.08403456 16.8737793 -0.08789062 C17.88824631 -0.10023743 18.90271332 -0.11258423 19.94792175 -0.12530518 C28.91217241 -0.09678297 28.91217241 -0.09678297 32.67456055 3.24023438 C35.48896052 7.40473903 35.00544428 11.82810484 34.98706055 16.67773438 C35.00317383 17.52400391 35.01928711 18.37027344 35.03588867 19.2421875 C35.03962337 24.01139328 34.891823 27.42805234 31.67456055 31.24023438 C31.01456055 31.24023438 30.35456055 31.24023438 29.67456055 31.24023438 C29.34456055 31.90023438 29.01456055 32.56023437 28.67456055 33.24023438 C18.70386599 33.20220315 8.73354768 33.14287915 -1.23685074 33.05633163 C-5.86649244 33.0168142 -10.49594273 32.98464676 -15.12573242 32.96923828 C-19.59338029 32.95409963 -24.06050207 32.91970427 -28.52791595 32.87192535 C-30.23270852 32.85708263 -31.93757619 32.8491917 -33.64243317 32.84835052 C-36.02985286 32.84598771 -38.4158105 32.81896607 -40.80297852 32.78613281 C-41.86141716 32.79367836 -41.86141716 32.79367836 -42.9412384 32.80137634 C-46.25646605 32.73078414 -48.05746523 32.43925601 -50.74871826 30.44049072 C-52.87821066 27.46886252 -53.04893374 24.83480863 -53.32543945 21.24023438 C-54.46819336 21.27503906 -54.46819336 21.27503906 -55.6340332 21.31054688 C-65.0223171 21.47463673 -74.41173608 20.91306766 -82.32543945 15.24023438 C-82.65543945 14.25023437 -82.98543945 13.26023437 -83.32543945 12.24023438 C-77.32543945 14.24023438 -77.32543945 14.24023438 -75.45043945 15.00585938 C-68.25734815 17.78500829 -60.95360235 17.94877624 -53.32543945 18.24023438 C-53.3718457 17.50417969 -53.41825195 16.768125 -53.46606445 16.00976562 C-53.76343199 7.97022193 -53.76343199 7.97022193 -51.45043945 4.11523438 C-48.44544702 1.46377046 -46.73363122 1.09900794 -42.81835938 0.93261719 C-41.87962479 0.89191101 -40.9408902 0.85120483 -39.97370911 0.80926514 C-38.94895981 0.77101624 -37.92421051 0.73276733 -36.8684082 0.69335938 C-35.80132126 0.65172668 -34.73423431 0.61009399 -33.6348114 0.56719971 C-22.42473824 0.16038479 -11.21686241 0.01972918 0 0 Z " fill="#292C47" transform="translate(377.325439453125,329.759765625)"/>
<path d="M0 0 C7.59 0 15.18 0 23 0 C23 5.28 23 10.56 23 16 C28.28 16 33.56 16 39 16 C39 23.59 39 31.18 39 39 C33.72 39 28.44 39 23 39 C23 44.28 23 49.56 23 55 C15.41 55 7.82 55 0 55 C0 49.72 0 44.44 0 39 C-5.28 39 -10.56 39 -16 39 C-16 31.41 -16 23.82 -16 16 C-10.72 16 -5.44 16 0 16 C0 10.72 0 5.44 0 0 Z " fill="#7BB1FE" transform="translate(356,405)"/>
<path d="M0 0 C2.04940607 0.54584745 4.0988874 1.09141236 6.1484375 1.63671875 C7.1909668 1.91563965 8.23349609 2.19456055 9.30761719 2.48193359 C12.31848319 3.28091691 15.33352122 4.06064207 18.3515625 4.83203125 C30.81295267 8.02234004 43.14712074 11.51634781 55.4375 15.3125 C55.20740234 16.27736328 55.20740234 16.27736328 54.97265625 17.26171875 C54.28003326 21.21017537 54.07949119 25.1256887 53.875 29.125 C53.81022461 30.30739258 53.81022461 30.30739258 53.74414062 31.51367188 C53.63871679 33.44644215 53.53766906 35.37945026 53.4375 37.3125 C49.6537197 38.54902951 47.90478254 37.78116315 44.3203125 36.08203125 C41.44068638 34.90508862 38.51244773 34.62627018 35.4375 34.3125 C35.4375 33.6525 35.4375 32.9925 35.4375 32.3125 C33.97957031 32.12300781 33.97957031 32.12300781 32.4921875 31.9296875 C28.13490189 31.30534039 23.85691945 30.39644364 19.5625 29.4375 C18.76674561 29.26041504 17.97099121 29.08333008 17.15112305 28.90087891 C11.78520819 27.68082774 6.60538419 26.20999528 1.4375 24.3125 C-3.78812057 22.51056187 -7.13897162 22.22779432 -12.5625 23.3125 C-23.32543997 25.3647555 -36.98404936 26.26650665 -46.5703125 20 C-48.25 18.625 -48.25 18.625 -50.5625 16.3125 C-50.2325 15.6525 -49.9025 14.9925 -49.5625 14.3125 C-48 15.2890625 -46.4375 16.265625 -44.875 17.2421875 C-38.67763578 20.11056216 -32.28460657 20.65789765 -25.5625 20.9375 C-24.78777344 20.97617187 -24.01304687 21.01484375 -23.21484375 21.0546875 C-21.33106585 21.14771357 -19.44681744 21.23113175 -17.5625 21.3125 C-17.5625 20.3225 -17.5625 19.3325 -17.5625 18.3125 C-18.34625 18.18875 -19.13 18.065 -19.9375 17.9375 C-22.5625 17.3125 -22.5625 17.3125 -24.5625 15.3125 C-24.1747789 9.23820275 -22.62899053 3.02748338 -20.5625 -2.6875 C-14.98571973 -5.47589013 -5.70633459 -1.54423373 0 0 Z " fill="#24B0F4" transform="translate(262.5625,357.6875)"/>
<path d="M0 0 C7.92 0 15.84 0 24 0 C24 25.41 24 50.82 24 77 C16.08 77 8.16 77 0 77 C0 51.59 0 26.18 0 0 Z " fill="#000000" transform="translate(431,129)"/>
<path d="M0 0 C0.74258057 0.04898437 1.48516113 0.09796875 2.25024414 0.1484375 C8.73034522 0.65651468 14.83627628 1.88688814 20.6875 4.8125 C20.6875 5.4725 20.6875 6.1325 20.6875 6.8125 C21.3475 6.8125 22.0075 6.8125 22.6875 6.8125 C24.43277825 10.3030565 24.24859043 14.00368614 23.6875 17.8125 C19.87461604 23.47032782 14.050326 24.95328188 7.64453125 26.21484375 C5.65600357 26.5045893 3.69270274 26.68401128 1.6875 26.8125 C1.01332031 26.86535156 0.33914062 26.91820312 -0.35546875 26.97265625 C-8.2670592 27.30410722 -16.92679372 25.73530009 -24.125 22.375 C-27.308757 18.64545609 -26.90486973 15.36097432 -26.81640625 10.58984375 C-26.25864826 7.51568922 -25.80836362 6.6141119 -23.3125 4.8125 C-21.515625 3.93359375 -21.515625 3.93359375 -19.5625 3.25 C-18.92828125 3.02183594 -18.2940625 2.79367187 -17.640625 2.55859375 C-16.87234375 2.31238281 -16.1040625 2.06617188 -15.3125 1.8125 C-13.70568359 1.26722656 -13.70568359 1.26722656 -12.06640625 0.7109375 C-7.82841886 -0.30335709 -4.30904925 -0.31973038 0 0 Z " fill="#77AEFC" transform="translate(188.3125,464.1875)"/>
<path d="M0 0 C4.05257189 2.90406973 6.17252257 6.26129238 7.625 11 C8.46982307 16.9137615 6.97481222 21.19702981 3.625 26 C-0.93605476 31.15821317 -6.35224886 35.29891317 -13.375 36 C-17.95155046 35.20943899 -21.52745242 33.56503172 -25.375 31 C-25.375 30.34 -25.375 29.68 -25.375 29 C-26.035 29 -26.695 29 -27.375 29 C-30.3936121 22.28115371 -31.0215292 16.98258374 -28.375 10 C-26.89046028 7.54367277 -25.48712095 6.0065149 -23.375 4 C-22.715 4 -22.055 4 -21.375 4 C-21.148125 3.38125 -20.92125 2.7625 -20.6875 2.125 C-16.66259121 -4.39151899 -5.90044375 -3.27557344 0 0 Z " fill="#77AFFD" transform="translate(411.375,285)"/>
<path d="M0 0 C4.1383177 2.60893942 6.13333844 5.22322523 8.1875 9.625 C9.58168355 16.08894193 8.15693385 21.10478895 4.875 26.8125 C4.215 26.8125 3.555 26.8125 2.875 26.8125 C2.875 27.4725 2.875 28.1325 2.875 28.8125 C-3.501038 32.57272754 -9.58045062 33.48861874 -16.8125 32.125 C-22.04071935 30.7472319 -25.75945527 28.67874447 -29 24.25 C-31.01053334 18.10670367 -31.31591339 12.23843469 -28.4375 6.375 C-21.12389087 -1.72926958 -10.4738101 -4.04773884 0 0 Z " fill="#76AEFE" transform="translate(208.125,256.1875)"/>
<path d="M0 0 C2.97 0 5.94 0 9 0 C8.09572014 13.6988779 8.09572014 13.6988779 7.4375 18.25 C6.19213894 27.03176949 6.19213894 27.03176949 9 35 C12.53993123 35.39332569 15.04961922 35.43666144 18.3125 33.9375 C23.0284821 28.52285388 22.79580987 19.43191025 23.5625 12.625 C23.80993864 10.45007782 24.06103421 8.27556745 24.31640625 6.1015625 C24.42412354 5.14588379 24.53184082 4.19020508 24.64282227 3.20556641 C25 1 25 1 26 0 C28.67058851 -0.14115161 31.32432238 -0.04247107 34 0 C32.08750232 32.66344729 32.08750232 32.66344729 23.4375 40.4375 C18.66393884 44.33927493 13.96189622 44.56147995 8 44 C3.28121312 42.30835942 0.79417183 40.13951382 -2 36 C-3.22720888 32.31837337 -2.94172765 29.11827517 -2.6875 25.3125 C-2.64117432 24.5687915 -2.59484863 23.82508301 -2.54711914 23.05883789 C-2.02508015 15.33086917 -1.063219 7.6696283 0 0 Z " fill="#000000" transform="translate(224,514)"/>
<path d="M0 0 C3.05673544 2.18441235 3.97839708 3.96650732 5.03125 7.55859375 C4.96875 10.93359375 4.96875 10.93359375 3.7421875 12.5390625 C-3.60409496 18.31576479 -14.21330756 17.49286191 -22.95703125 16.65234375 C-29.05287084 15.77548716 -34.38977387 14.1446573 -39.03125 9.93359375 C-40.87107342 6.81257316 -41.757397 4.56432876 -41.03125 0.93359375 C-30.79969682 -7.43767704 -11.27528882 -5.91952663 0 0 Z " fill="#6DCAF3" transform="translate(271.03125,312.06640625)"/>
<path d="M0 0 C1.34312256 0.00628418 1.34312256 0.00628418 2.71337891 0.01269531 C11.26459925 0.15908299 19.84420088 1.17590852 26.3125 7.3125 C27.41371594 10.06553986 27.75976032 12.37508762 27.3125 15.3125 C23.94582229 19.43939526 19.44007549 20.6513975 14.3125 21.3125 C3.88787595 22.15982166 -6.58529269 21.36936913 -15.5078125 15.4375 C-18.84981163 12.17935031 -18.46059334 9.85063316 -18.6875 5.3125 C-12.6939172 0.42883994 -7.49359533 -0.04706858 0 0 Z " fill="#6DCCF6" transform="translate(267.6875,254.6875)"/>
<path d="M0 0 C2.67605875 1.97183276 3.65836306 4.08488681 4.6328125 7.203125 C4.6328125 9.390625 4.6328125 9.390625 3.6328125 11.203125 C-3.49699635 16.82055015 -12.72677119 16.76167434 -21.3671875 16.203125 C-27.9858402 15.29126728 -34.37368032 13.48764364 -39.7421875 9.390625 C-41.75125059 6.68611699 -42.06542246 4.52254046 -42.3671875 1.203125 C-31.39730889 -8.47617966 -12.39160384 -6.7225705 0 0 Z " fill="#22ADF2" transform="translate(353.3671875,281.796875)"/>
<path d="M0 0 C8.13840791 3.17773901 15.10386586 8.60506058 21 15 C21 15.66 21 16.32 21 17 C21.66 17 22.32 17 23 17 C28.52633616 26.50376842 28.52633616 26.50376842 27.9375 31.0625 C27.628125 32.031875 27.31875 33.00125 27 34 C23.91348106 35.54325947 21.32726366 35.59497944 18 35 C5.8754181 30.43644209 -3.75972751 22.40335508 -10 11 C-11.20513308 7.34351667 -11.23549837 4.70649511 -10 1 C-6.68045538 -0.65977231 -3.57451388 -0.5928462 0 0 Z " fill="#6BCCF7" transform="translate(367,227)"/>
<path d="M0 0 C9.63310449 3.51817729 16.34412867 14.58360836 20.62109375 23.3828125 C22.3709825 27.7002236 23.82765968 32.1223502 23.24609375 36.8203125 C20.80859375 39.8828125 20.80859375 39.8828125 18.24609375 41.8203125 C10.00065295 40.56557151 4.59097139 34.84985593 -0.5859375 28.61328125 C-5.96194745 21.05964702 -9.92681738 12.20360156 -8.75390625 2.8203125 C-6.93335194 -0.93458077 -3.86347625 -0.66636104 0 0 Z " fill="#6FCDF7" transform="translate(169.75390625,309.1796875)"/>
<path d="M0 0 C3.02181414 -0.10867663 6.03966327 -0.18762754 9.0625 -0.25 C9.91005859 -0.28351562 10.75761719 -0.31703125 11.63085938 -0.3515625 C17.64322652 -0.44441759 21.08791367 0.47751704 26 4 C28.40098183 7.86244903 28.3852673 11.53089927 28 16 C26.3348271 21.17080005 24.57079843 24.02898102 20 27 C16.71480525 28.09506492 14.26336585 28.09960608 10.8125 28.0625 C9.18248047 28.04896484 9.18248047 28.04896484 7.51953125 28.03515625 C6.68808594 28.02355469 5.85664063 28.01195312 5 28 C5.020625 29.175625 5.04125 30.35125 5.0625 31.5625 C5.06947261 35.47413467 4.64250343 39.14497944 4 43 C1.03 43 -1.94 43 -5 43 C-3.74842658 28.59954352 -2.06710623 14.30611498 0 0 Z M8 7 C7.34 11.95 6.68 16.9 6 22 C12.11595191 21.75846148 12.11595191 21.75846148 17.5625 19.375 C19.56743105 16.06250523 19.48364579 13.80007406 19 10 C18.14780077 7.89757556 18.14780077 7.89757556 16 7 C13.28117977 6.76404716 10.74042978 6.86522477 8 7 Z " fill="#000000" transform="translate(268,514)"/>
<path d="M0 0 C2.87557703 -0.08138426 5.74882262 -0.14067851 8.625 -0.1875 C9.43324219 -0.21263672 10.24148438 -0.23777344 11.07421875 -0.26367188 C17.04129486 -0.3364411 21.00969838 0.65781097 25.8203125 4.42578125 C28.15580995 7.54235566 28.09791494 11.2180356 28 15 C27.12875135 19.43403333 25.74605184 22.27259946 22.5 25.4375 C18.47412786 27.95367009 15.4691974 28.11257202 10.8125 28.0625 C9.18248047 28.04896484 9.18248047 28.04896484 7.51953125 28.03515625 C6.68808594 28.02355469 5.85664063 28.01195312 5 28 C4.93941406 28.99902344 4.87882812 29.99804688 4.81640625 31.02734375 C4.73261719 32.31769531 4.64882813 33.60804688 4.5625 34.9375 C4.48128906 36.22527344 4.40007812 37.51304687 4.31640625 38.83984375 C4 42 4 42 3 43 C0.32941149 43.14115161 -2.32432238 43.04247107 -5 43 C-4.52852232 33.91186131 -3.5792154 24.90831232 -2.5 15.875 C-2.36940186 14.7722876 -2.23880371 13.6695752 -2.10424805 12.53344727 C-1.97703369 11.48858154 -1.84981934 10.44371582 -1.71875 9.3671875 C-1.54762695 7.96122314 -1.54762695 7.96122314 -1.37304688 6.52685547 C-1.04353039 4.2948557 -0.59443976 2.17429735 0 0 Z M8 7 C6.58365167 9.83269666 6.6536995 12.47466438 6.4375 15.625 C6.35371094 16.81351563 6.26992188 18.00203125 6.18359375 19.2265625 C6.12300781 20.14179687 6.06242187 21.05703125 6 22 C12.28866319 21.89130314 12.28866319 21.89130314 17.5625 18.8125 C19.24417245 15.52227128 19.55470898 13.64523044 19 10 C18.12870693 7.96117905 18.12870693 7.96117905 16 7 C13.28121737 6.75868793 10.7407889 6.8652071 8 7 Z " fill="#000000" transform="translate(305,514)"/>
<path d="M0 0 C1.6328125 1.10546875 1.6328125 1.10546875 3.9453125 3.10546875 C2.89656252 5.72734369 2.29599937 6.89918236 -0.1796875 8.35546875 C-0.7984375 8.60296875 -1.4171875 8.85046875 -2.0546875 9.10546875 C-3.0446875 8.44546875 -4.0346875 7.78546875 -5.0546875 7.10546875 C-9.20245023 6.81884442 -9.20245023 6.81884442 -13.0546875 8.10546875 C-13.71241178 11.13481366 -13.71241178 11.13481366 -14.0546875 14.10546875 C-13.2296875 14.33234375 -12.4046875 14.55921875 -11.5546875 14.79296875 C-7.13629254 16.44986686 -1.26089863 18.6930465 0.9453125 23.10546875 C1.49509319 28.11658455 1.50685763 32.00243368 -0.8046875 36.54296875 C-4.12918765 40.32920503 -6.9238757 42.7953693 -12.10546875 43.30859375 C-17.21739563 43.41454042 -20.61211351 42.92271079 -25.0546875 40.10546875 C-25.7146875 39.44546875 -26.3746875 38.78546875 -27.0546875 38.10546875 C-26.68787092 35.17093614 -26.19031504 34.24109629 -24.0546875 32.10546875 C-21.40126504 32.38477638 -19.47457121 32.85353852 -17.1796875 34.23046875 C-13.99420492 35.54213805 -11.36420484 34.74191439 -8.0546875 34.10546875 C-8.0546875 31.79546875 -8.0546875 29.48546875 -8.0546875 27.10546875 C-8.88613281 26.73035156 -9.71757812 26.35523438 -10.57421875 25.96875 C-12.20423828 25.20111328 -12.20423828 25.20111328 -13.8671875 24.41796875 C-14.94613281 23.91910156 -16.02507812 23.42023437 -17.13671875 22.90625 C-20.35761047 20.91852432 -21.55532815 19.54980124 -23.0546875 16.10546875 C-23.57577105 12.06528669 -22.90308087 8.46796317 -20.74609375 5.00390625 C-15.63560726 -1.18985044 -7.69758654 -3.35123064 0 0 Z " fill="#000000" transform="translate(212.0546875,514.89453125)"/>
<path d="M0 0 C3.97899727 2.06504922 6.48632107 4.07190188 8.0390625 8.2734375 C8.5716775 12.81941906 8.57194086 16.83153135 6.9765625 21.1484375 C3.31942349 25.15949319 -0.55097537 27.46879886 -5.9609375 27.7734375 C-11.37089963 27.46879886 -15.24129849 25.15949319 -18.8984375 21.1484375 C-20.49895754 16.81761857 -20.61096723 12.83094929 -19.9609375 8.2734375 C-18.1652656 4.47490078 -16.66477435 2.75332626 -13.2109375 0.3984375 C-8.60696782 -1.19524431 -4.58098521 -1.69733715 0 0 Z " fill="#000000" transform="translate(448.9609375,94.7265625)"/>
<path d="M0 0 C2.97 0 5.94 0 9 0 C9.82065069 1.87144695 10.6311584 3.74734336 11.4375 5.625 C11.88996094 6.66914062 12.34242188 7.71328125 12.80859375 8.7890625 C13.95801705 11.88685251 14.57311223 14.73210054 15 18 C18.15180077 15.00652435 20.33071305 11.53845819 22.625 7.875 C26.89527027 1.10472973 26.89527027 1.10472973 28 0 C31.00003445 -0.14177857 33.99757235 -0.04228771 37 0 C34.18961887 5.39837489 31.13327442 10.27820916 27.39379883 15.07592773 C20.68495257 23.76935782 18.43003001 30.07130619 18 41 C17.67 41.66 17.34 42.32 17 43 C14.36 43 11.72 43 9 43 C9.10441406 41.87207031 9.20882813 40.74414062 9.31640625 39.58203125 C10.13678213 26.31928786 6.79280363 16.7266711 0.82617188 4.96679688 C0 3 0 3 0 0 Z " fill="#000000" transform="translate(363,514)"/>
<path d="M0 0 C-0.66 0.66 -1.32 1.32 -2 2 C-6.41217199 1.63834656 -10.67443132 0.94621815 -15 0 C-15 0.99 -15 1.98 -15 3 C-13.081875 2.9690625 -13.081875 2.9690625 -11.125 2.9375 C-7.25 2.875 -7.25 2.875 -5 4 C-5 8.62 -5 13.24 -5 18 C-26.2440632 18.95958127 -26.2440632 18.95958127 -34.23046875 12.078125 C-36.78318272 9.08023575 -37.06956076 6.89540253 -37 3 C-28.19102595 -7.18537625 -11.15287912 -3.37600665 0 0 Z " fill="#21AEF3" transform="translate(229,417)"/>
<path d="M0 0 C0.71671875 -0.00773437 1.4334375 -0.01546875 2.171875 -0.0234375 C7.28431363 -0.00498104 11.70831496 0.85157491 16.625 2.25 C16.150625 2.848125 15.67625 3.44625 15.1875 4.0625 C12.93869498 8.65006225 12.881466 13.20027297 12.625 18.25 C-3.77910894 18.83354538 -3.77910894 18.83354538 -11.375 15.25 C-12.055625 14.94835937 -12.73625 14.64671875 -13.4375 14.3359375 C-16.58423217 12.77525985 -18.15669742 11.89035424 -19.3125 8.5 C-19.333125 7.7575 -19.35375 7.015 -19.375 6.25 C-13.29995372 0.88966504 -7.81712879 -0.08345689 0 0 Z " fill="#1FACF1" transform="translate(311.375,329.75)"/>
<path d="M0 0 C3.96 0 7.92 0 12 0 C12 2.64 12 5.28 12 8 C14.31 8 16.62 8 19 8 C19 11.63 19 15.26 19 19 C16.69 19.33 14.38 19.66 12 20 C11.67 22.31 11.34 24.62 11 27 C7.37 27 3.74 27 0 27 C0 24.69 0 22.38 0 20 C-2.64 20 -5.28 20 -8 20 C-8 16.04 -8 12.08 -8 8 C-5.36 8 -2.72 8 0 8 C0 5.36 0 2.72 0 0 Z " fill="#7BB1FD" transform="translate(263,435)"/>
<path d="M0 0 C2.97 0 5.94 0 9 0 C8.40093995 12.10514449 6.72326064 24.01304237 5 36 C9.95 36 14.9 36 20 36 C20 37.98 20 39.96 20 42 C19 43 19 43 16.68334961 43.11352539 C15.68311768 43.10828857 14.68288574 43.10305176 13.65234375 43.09765625 C12.19429321 43.09390991 12.19429321 43.09390991 10.70678711 43.09008789 C9.46292236 43.08098389 8.21905762 43.07187988 6.9375 43.0625 C2.998125 43.041875 -0.94125 43.02125 -5 43 C-3.35 28.81 -1.7 14.62 0 0 Z " fill="#000000" transform="translate(341,514)"/>
<path d="M0 0 C0.33 0 0.66 0 1 0 C1.6037001 7.12366115 1.6037001 7.12366115 -0.9375 10.8125 C-6.93432384 15.0959456 -13.73249076 16.53431494 -21 17 C-21.67417969 17.05285156 -22.34835938 17.10570312 -23.04296875 17.16015625 C-30.9351545 17.49079427 -39.74981872 16.02349412 -46.8125 12.375 C-49.34409209 9.6264143 -49.33544743 8.85493452 -49.375 5.25 C-49.2788797 3.83108128 -49.16301505 2.41279706 -49 1 C-47.948125 1.680625 -47.948125 1.680625 -46.875 2.375 C-39.74471258 6.40516245 -33.17501455 6.33489909 -25.1875 6.3125 C-24.04990234 6.32861328 -22.91230469 6.34472656 -21.74023438 6.36132812 C-10.72981665 6.43745192 -10.72981665 6.43745192 -1.32104492 1.39575195 C-0.66712769 0.70485474 -0.66712769 0.70485474 0 0 Z " fill="#242945" transform="translate(211,474)"/>
<path d="M0 0 C0.87914062 0.00902344 1.75828125 0.01804687 2.6640625 0.02734375 C4.8178271 0.05075423 6.97145014 0.0866199 9.125 0.125 C8.795 4.085 8.465 8.045 8.125 12.125 C10.105 13.115 12.085 14.105 14.125 15.125 C14.125 16.115 14.125 17.105 14.125 18.125 C-9.97954201 18.88001466 -9.97954201 18.88001466 -18.875 11.125 C-20 8.625 -20 8.625 -19.875 6.125 C-15.07870868 -0.58980785 -7.45207863 -0.14589913 0 0 Z " fill="#6EC9F1" transform="translate(230.875,360.875)"/>
<path d="M0 0 C0.76957031 0.25523437 0.76957031 0.25523437 1.5546875 0.515625 C8.12118866 2.59391156 14.76003661 4.11784927 21.48974609 5.55371094 C26.05539733 6.53469418 30.52412137 7.66612889 35 9 C35 9.66 35 10.32 35 11 C36.051875 10.95875 37.10375 10.9175 38.1875 10.875 C41.74010173 10.99147875 43.84866641 11.47208068 47 13 C47 13.33 47 13.66 47 14 C23.9 14 0.8 14 -23 14 C-23 13.67 -23 13.34 -23 13 C-16.73 13 -10.46 13 -4 13 C-1.83294642 6.54864612 -1.83294642 6.54864612 0 0 Z " fill="#A1ACB5" transform="translate(263,381)"/>
<path d="M0 0 C2.04119788 1.61594832 4.04072937 3.2856382 6 5 C6 5.66 6 6.32 6 7 C6.66 7 7.32 7 8 7 C13.52633616 16.50376842 13.52633616 16.50376842 12.9375 21.0625 C12.628125 22.031875 12.31875 23.00125 12 24 C8.91520208 25.54239896 6.32462037 25.60760303 3 25 C-3.54522887 22.42000238 -9.4854972 19.48189626 -14 14 C-13.2575 13.443125 -12.515 12.88625 -11.75 12.3125 C-8.92455792 10.09173001 -8.92455792 10.09173001 -6.8125 7.25 C-5.9153125 6.13625 -5.9153125 6.13625 -5 5 C-3 5 -3 5 -1.375 6.5 C-0.92125 6.995 -0.4675 7.49 0 8 C-0.66 6.02 -1.32 4.04 -2 2 C-1.34 1.34 -0.68 0.68 0 0 Z " fill="#1EAFF5" transform="translate(382,237)"/>
<path d="M0 0 C0.66 0 1.32 0 2 0 C1.67 1.65 1.34 3.3 1 5 C2.051875 5.144375 3.10375 5.28875 4.1875 5.4375 C7.15460549 5.87526966 10.06794366 6.37804866 13 7 C13 6.01 13 5.02 13 4 C13.66 4 14.32 4 15 4 C13.07289294 15.52164009 13.07289294 15.52164009 11 21 C9.5459375 20.690625 9.5459375 20.690625 8.0625 20.375 C5.07900632 19.94200788 2.9005238 20.15045085 0 20.9375 C-9.98562849 23.42538696 -21.48623857 23.10020695 -31 19 C-33.31449847 17.48702046 -35.03188898 15.96811102 -37 14 C-36.67 13.34 -36.34 12.68 -36 12 C-34.4375 12.9765625 -32.875 13.953125 -31.3125 14.9296875 C-25.11513578 17.79806216 -18.72210657 18.34539765 -12 18.625 C-11.22527344 18.66367187 -10.45054687 18.70234375 -9.65234375 18.7421875 C-7.76856585 18.83521357 -5.88431744 18.91863175 -4 19 C-4.04125 17.97777344 -4.0825 16.95554687 -4.125 15.90234375 C-4.00002634 12.0008223 -3.31312588 9.21463136 -2 5.5625 C-1.62875 4.51191406 -1.2575 3.46132813 -0.875 2.37890625 C-0.58625 1.59386719 -0.2975 0.80882812 0 0 Z " fill="#20ADF2" transform="translate(249,360)"/>
<path d="M0 0 C6.72220016 2.48884227 11.77331177 8.77593623 15.2578125 14.8359375 C11.9578125 17.1459375 8.6578125 19.4559375 5.2578125 21.8359375 C2.77464785 19.35277285 1.5773068 17.90665217 0.0703125 14.8984375 C-0.27386719 14.22941406 -0.61804688 13.56039063 -0.97265625 12.87109375 C-1.7421875 10.8359375 -1.7421875 10.8359375 -1.7421875 6.8359375 C-2.7321875 6.8359375 -3.7221875 6.8359375 -4.7421875 6.8359375 C-3.96681641 8.40794922 -3.96681641 8.40794922 -3.17578125 10.01171875 C-2.5098995 11.39037533 -1.84456315 12.76929543 -1.1796875 14.1484375 C-0.83744141 14.83873047 -0.49519531 15.52902344 -0.14257812 16.24023438 C2.37109375 21.49609375 2.37109375 21.49609375 1.2578125 24.8359375 C0.2678125 25.1659375 -0.7221875 25.4959375 -1.7421875 25.8359375 C-6.77611542 18.43875335 -9.49775234 11.90271562 -8.7421875 2.8359375 C-6.92289066 -0.91636223 -3.86424029 -0.64166352 0 0 Z " fill="#1FAEF5" transform="translate(169.7421875,309.1640625)"/>
<path d="M0 0 C8.93200809 -0.37800034 16.88490296 -0.05754852 25 4 C25 4.66 25 5.32 25 6 C25.66 6 26.32 6 27 6 C27.33 6.99 27.66 7.98 28 9 C23.07696078 13.56281684 18.98486748 15.83043117 12.0625 16.125 C11.381875 16.08375 10.70125 16.0425 10 16 C10.103125 15.27167969 10.20625 14.54335938 10.3125 13.79296875 C9.86846424 9.82439919 8.03702096 8.79695187 5 6.3125 C3.30340274 4.91045087 1.62870323 3.4803749 0 2 C0 1.34 0 0.68 0 0 Z " fill="#76AEFC" transform="translate(184,465)"/>
<path d="M0 0 C0.33 0.66 0.66 1.32 1 2 C0.67 2.99 0.34 3.98 0 5 C-0.38883004 10.8324506 -0.00106844 14.79814803 3 20 C6.69270764 23.60038995 9.56814453 24.24528122 14.5625 24.3125 C18.15360702 24.21571839 21.49396369 23.77982363 25 23 C21.11476828 27.63721205 17.10891813 30.23885648 11 31 C6.42562231 30.22798358 2.84141561 28.56094374 -1 26 C-1 25.34 -1 24.68 -1 24 C-1.66 24 -2.32 24 -3 24 C-6.02985434 17.25613066 -6.5571499 12.02298586 -4 5 C-1.875 1.875 -1.875 1.875 0 0 Z " fill="#212540" transform="translate(387,290)"/>
<path d="M0 0 C5.48001528 -0.33551114 9.16658354 0.35530043 14 3 C17.67246359 6.67246359 20 10.63257336 20 15.94921875 C19.5831352 20.50867747 18.30357711 23.99377894 16 28 C15.34 28 14.68 28 14 28 C14 28.66 14 29.32 14 30 C9.63799813 32.44697666 5.97306516 33.50269348 1 34 C1 33.34 1 32.68 1 32 C2.64453125 30.88671875 2.64453125 30.88671875 4.8125 29.6875 C8.38405462 27.49399654 10.5755985 26.0951543 12 22 C12.52282418 17.055577 12.67979171 12.63150011 10.75 8 C7.59063029 4.38929176 4.4986631 2.62451723 0 1 C0 0.67 0 0.34 0 0 Z " fill="#232845" transform="translate(197,255)"/>
<path d="M0 0 C18.81 0 37.62 0 57 0 C57.495 1.485 57.495 1.485 58 3 C38.86 3 19.72 3 0 3 C0 2.01 0 1.02 0 0 Z " fill="#32B6F6" transform="translate(246,408)"/>
<path d="M0 0 C0.99 0.4021875 0.99 0.4021875 2 0.8125 C2.99 1.204375 3.98 1.59625 5 2 C6.155 2.51046875 7.31 3.0209375 8.5 3.546875 C13.63664327 5.4607911 18.57022999 5.47818629 24 5.4375 C24.94617188 5.45748047 25.89234375 5.47746094 26.8671875 5.49804688 C33.36106476 5.49354973 37.411887 4.3084169 43 1 C43.66 0.67 44.32 0.34 45 0 C44.69080748 2.86003076 44.41927517 4.54718282 42.4375 6.6875 C32.9056756 11.82002083 21.05719434 11.16428839 10.9375 8.25 C6.54052922 6.85272808 3.39087419 5.16066805 0 2 C0 1.34 0 0.68 0 0 Z " fill="#323A54" transform="translate(250,266)"/>
<path d="M0 0 C0.52207031 0.26554687 1.04414063 0.53109375 1.58203125 0.8046875 C13.61269791 6.57772194 25.76141813 7.473895 38.5546875 3.94921875 C41.09953513 2.96136256 42.90815449 1.73671825 45 0 C44.9375 2.8125 44.9375 2.8125 44 6 C34.16710985 11.4837272 22.31707937 10.94929871 11.5546875 8.765625 C7.60229091 7.58111471 4.0764259 5.77207361 1 3 C0.67 2.01 0.34 1.02 0 0 Z " fill="#2F344E" transform="translate(231,319)"/>
<path d="M0 0 C0.78310547 0.50660156 0.78310547 0.50660156 1.58203125 1.0234375 C11.19899931 6.85088224 22.69857394 8.70705381 33.7734375 6.4296875 C38.1752903 5.20336487 41.42660884 3.90592402 45 1 C45.6875 2.8125 45.6875 2.8125 46 5 C43.47997008 8.64004322 39.56741009 9.61770486 35.4375 10.625 C24.35253578 11.83426882 14.01655116 11.10647706 4 6 C1.5625 3.9375 1.5625 3.9375 0 2 C0 1.34 0 0.68 0 0 Z " fill="#2D334D" transform="translate(312,287)"/>
<path d="M0 0 C0.86931152 0.01047363 1.73862305 0.02094727 2.63427734 0.03173828 C3.57529297 0.03818359 4.51630859 0.04462891 5.48583984 0.05126953 C6.47068359 0.06802734 7.45552734 0.08478516 8.47021484 0.10205078 C9.46279297 0.11107422 10.45537109 0.12009766 11.47802734 0.12939453 C13.93399618 0.15300962 16.38948653 0.18594279 18.84521484 0.22705078 C19.22740251 1.88319735 19.55916586 3.55162102 19.84521484 5.22705078 C18.84521484 6.22705078 18.84521484 6.22705078 16.80395508 6.34057617 C15.92940674 6.33533936 15.0548584 6.33010254 14.15380859 6.32470703 C13.20957031 6.32148438 12.26533203 6.31826172 11.29248047 6.31494141 C10.29925781 6.3065625 9.30603516 6.29818359 8.28271484 6.28955078 C7.285625 6.28503906 6.28853516 6.28052734 5.26123047 6.27587891 C2.78916636 6.26405085 0.31721966 6.24756927 -2.15478516 6.22705078 C-2.81478516 4.90705078 -3.47478516 3.58705078 -4.15478516 2.22705078 C-2.15478516 0.22705078 -2.15478516 0.22705078 0 0 Z " fill="#DAE5E9" transform="translate(337.15478515625,369.77294921875)"/>
<path d="M0 0 C0.69738281 0.00451172 1.39476562 0.00902344 2.11328125 0.01367188 C3.82555803 0.0253998 5.53779033 0.04333347 7.25 0.0625 C7.25 0.7225 7.25 1.3825 7.25 2.0625 C8.9 2.7225 10.55 3.3825 12.25 4.0625 C12.25 4.7225 12.25 5.3825 12.25 6.0625 C11.68079834 6.05726318 11.11159668 6.05202637 10.52514648 6.04663086 C7.91260917 6.02567113 5.30008963 6.01277996 2.6875 6 C1.79224609 5.99162109 0.89699219 5.98324219 -0.02539062 5.97460938 C-4.02379296 5.95996321 -7.88547426 5.99931969 -11.83984375 6.62890625 C-12.80019531 6.77199219 -13.76054687 6.91507812 -14.75 7.0625 C-15.08 6.7325 -15.41 6.4025 -15.75 6.0625 C-16.41 7.3825 -17.07 8.7025 -17.75 10.0625 C-18.125 7.8125 -18.125 7.8125 -17.75 5.0625 C-11.91997048 0.29247584 -7.29488088 -0.08963464 0 0 Z " fill="#79D0F5" transform="translate(247.75,307.9375)"/>
<path d="M0 0 C0.66 0 1.32 0 2 0 C1.34498733 3.61197375 0.41574668 7.00998108 -0.7421875 10.4921875 C-1.08636719 11.52730469 -1.43054688 12.56242187 -1.78515625 13.62890625 C-2.14480469 14.70011719 -2.50445312 15.77132813 -2.875 16.875 C-3.22691406 17.93847656 -3.57882812 19.00195312 -3.94140625 20.09765625 C-6.85280814 28.81021581 -6.85280814 28.81021581 -8.6015625 32.765625 C-10.45356244 37.04902151 -11.78293092 41.45084388 -13.10546875 45.921875 C-13.64868661 47.6449482 -14.31609669 49.32777299 -15 51 C-16.485 51.495 -16.485 51.495 -18 52 C-16.62600403 46.14384244 -14.89628554 40.53756359 -12.875 34.875 C-12.57513184 34.02695801 -12.27526367 33.17891602 -11.96630859 32.30517578 C-9.54717078 25.48512059 -7.09069382 18.67834329 -4.625 11.875 C-4.27937012 10.92093262 -3.93374023 9.96686523 -3.57763672 8.98388672 C-3.25553223 8.09975098 -2.93342773 7.21561523 -2.6015625 6.3046875 C-2.31619629 5.52077637 -2.03083008 4.73686523 -1.73681641 3.92919922 C-1 2 -1 2 0 0 Z " fill="#ABB2B8" transform="translate(311,248)"/>
<path d="M0 0 C4.29 0.99 8.58 1.98 13 3 C11.68 4.65 10.36 6.3 9 8 C9 9.32 9 10.64 9 12 C4.71 12 0.42 12 -4 12 C-2.68 8.04 -1.36 4.08 0 0 Z " fill="#D8E4E7" transform="translate(265,382)"/>
<path d="M0 0 C0.66 0 1.32 0 2 0 C1.3686017 4.47410195 0.26875445 8.5379926 -1.1875 12.8125 C-1.51524414 13.77603394 -1.51524414 13.77603394 -1.84960938 14.7590332 C-2.56081735 16.84131995 -3.28003165 18.92072758 -4 21 C-4.24443848 21.7125293 -4.48887695 22.42505859 -4.74072266 23.15917969 C-7.86154848 32.24647002 -11.16213046 41.18648544 -15 50 C-15.66 50 -16.32 50 -17 50 C-15.18904073 42.32498213 -12.60695313 35.01804951 -9.84521484 27.64794922 C-7.50413015 21.39642711 -5.25824696 15.11650987 -3.0625 8.8125 C-2.75602539 7.93279541 -2.44955078 7.05309082 -2.13378906 6.14672852 C-1.42124417 4.09826445 -0.71041893 2.04920233 0 0 Z " fill="#ACB3BA" transform="translate(288,311)"/>
<path d="M0 0 C1.82291667 0.9765625 3.64583333 1.953125 5.46875 2.9296875 C11.89950586 5.64886513 17.86266241 6.30371618 24.75 6.1875 C25.49121094 6.18685547 26.23242188 6.18621094 26.99609375 6.18554688 C31.08526916 6.15824081 31.08526916 6.15824081 35.09863281 5.4621582 C37.38062626 4.9074826 38.79088102 5.28992604 41 6 C41 6.66 41 7.32 41 8 C29.69533185 11.17324018 16.96830678 11.69015138 6 7 C3.56986592 5.49653183 1.99137213 4.09901386 0 2 C0 1.34 0 0.68 0 0 Z " fill="#2A304A" transform="translate(212,372)"/>
<path d="M0 0 C0.66 0.33 1.32 0.66 2 1 C1.69078116 2.45903258 1.37751201 3.91720722 1.0625 5.375 C0.80146484 6.59316406 0.80146484 6.59316406 0.53515625 7.8359375 C0 10 0 10 -1 12 C-0.42814972 11.99555878 0.14370056 11.99111755 0.73287964 11.98654175 C6.66971342 11.94239049 12.60650078 11.91216788 18.54345703 11.89013672 C20.76092421 11.88006175 22.97837805 11.86640141 25.19580078 11.84912109 C28.37796312 11.82493837 31.55995024 11.81353203 34.7421875 11.8046875 C36.23599442 11.78920364 36.23599442 11.78920364 37.75997925 11.77340698 C39.14118454 11.77318039 39.14118454 11.77318039 40.55029297 11.77294922 C41.3630368 11.768508 42.17578064 11.76406677 43.01315308 11.75949097 C45 12 45 12 47 14 C23.9 14 0.8 14 -23 14 C-23 13.67 -23 13.34 -23 13 C-16.73 13 -10.46 13 -4 13 C-1.83294642 6.54864612 -1.83294642 6.54864612 0 0 Z " fill="#8CC9E4" transform="translate(263,381)"/>
<path d="M0 0 C0.99 0 1.98 0 3 0 C3 10.23 3 20.46 3 31 C2.01 31 1.02 31 0 31 C0 20.77 0 10.54 0 0 Z " fill="#DAE6E8" transform="translate(319,387)"/>
<path d="M0 0 C1.11375 0.61875 2.2275 1.2375 3.375 1.875 C12.02541715 6.1623346 21.50457318 6.43444166 31 7 C31 7.99 31 8.98 31 10 C9.65672263 10.96406272 9.65672263 10.96406272 1.703125 3.984375 C0 2 0 2 0 0 Z " fill="#2F334C" transform="translate(193,425)"/>
<path d="M0 0 C0.66 0 1.32 0 2 0 C2.66 1.32 3.32 2.64 4 4 C20.335 4.495 20.335 4.495 37 5 C37 5.66 37 6.32 37 7 C32.21284377 7.07415168 27.42602173 7.12860204 22.63842773 7.16479492 C21.00978777 7.17988243 19.38118844 7.20035506 17.75268555 7.22631836 C15.41184465 7.26270449 13.07154081 7.2797262 10.73046875 7.29296875 C9.63813179 7.31619453 9.63813179 7.31619453 8.52372742 7.33988953 C5.60859124 7.34086024 3.51150217 7.32712714 1.0168457 5.73168945 C0 4 0 4 0 0 Z " fill="#1491C0" transform="translate(236,411)"/>
<path d="M0 0 C4.1458364 0.40778719 7.80678834 1.25058971 11.8125 2.375 C8.36799263 4.67133824 5.87437717 4.91516485 1.8125 5.375 C1.4825 6.365 1.1525 7.355 0.8125 8.375 C-1.1675 8.375 -3.1475 8.375 -5.1875 8.375 C-5.875 6.625 -5.875 6.625 -6.1875 4.375 C-4.65990609 0.93791371 -3.76137482 0.44251468 0 0 Z " fill="#A3ADB5" transform="translate(279.1875,385.625)"/>
<path d="M0 0 C0.88816406 0.01353516 1.77632812 0.02707031 2.69140625 0.04101562 C4.87822578 0.07628691 7.06379966 0.12557248 9.25 0.1875 C9.25 0.8475 9.25 1.5075 9.25 2.1875 C7.99703125 2.21328125 6.7440625 2.2390625 5.453125 2.265625 C3.80204877 2.32191169 2.15100845 2.3792589 0.5 2.4375 C-0.325 2.45167969 -1.15 2.46585937 -2 2.48046875 C-6.96083924 2.67946229 -6.96083924 2.67946229 -11.28125 4.96875 C-12.82704597 7.30388859 -13.31545709 8.66935634 -13.5 11.4375 C-13.5825 12.675 -13.665 13.9125 -13.75 15.1875 C-14.74 15.1875 -15.73 15.1875 -16.75 15.1875 C-17.04445076 10.18183712 -16.86763863 7.19589253 -13.75 3.1875 C-9.92725759 -0.96375934 -5.2256422 -0.15051702 0 0 Z " fill="#CFE3EA" transform="translate(248.75,421.8125)"/>
<path d="M0 0 C8.58 0 17.16 0 26 0 C26 0.99 26 1.98 26 3 C17.42 3 8.84 3 0 3 C0 2.01 0 1.02 0 0 Z " fill="#BED7EE" transform="translate(181,270)"/>
<path d="M0 0 C2.66694948 -0.05455124 5.33275498 -0.09393392 8 -0.125 C8.74378906 -0.14175781 9.48757813 -0.15851563 10.25390625 -0.17578125 C15.50548443 -0.22144715 19.9516946 0.54287549 25 2 C23.94921875 4.015625 23.94921875 4.015625 22 6 C18.64453125 6.171875 18.64453125 6.171875 14.8125 5.75 C13.54019531 5.62109375 12.26789063 5.4921875 10.95703125 5.359375 C9.98121094 5.24078125 9.00539063 5.1221875 8 5 C8 4.01 8 3.02 8 2 C5.36 1.67 2.72 1.34 0 1 C0 0.67 0 0.34 0 0 Z " fill="#3DB3ED" transform="translate(303,330)"/>
<path d="M0 0 C0 1.65 0 3.3 0 5 C-4.29 5.66 -8.58 6.32 -13 7 C-13.33 5.35 -13.66 3.7 -14 2 C-9.07262981 0.02905192 -5.21979128 -0.1799928 0 0 Z " fill="#7DD1F4" transform="translate(229,361)"/>
<path d="M0 0 C6.93 0 13.86 0 21 0 C21 0.99 21 1.98 21 3 C14.07 3 7.14 3 0 3 C0 2.01 0 1.02 0 0 Z " fill="#B4BDC2" transform="translate(255,477)"/>
<path d="M0 0 C0.66 0 1.32 0 2 0 C2 6.6 2 13.2 2 20 C1.01 19.67 0.02 19.34 -1 19 C-1.02683987 16.02077407 -1.04676037 13.04178705 -1.0625 10.0625 C-1.07087891 9.21236328 -1.07925781 8.36222656 -1.08789062 7.48632812 C-1.09111328 6.67744141 -1.09433594 5.86855469 -1.09765625 5.03515625 C-1.10289307 4.2862915 -1.10812988 3.53742676 -1.11352539 2.76586914 C-1 1 -1 1 0 0 Z " fill="#D6E3E9" transform="translate(360,408)"/>
<path d="M0 0 C4.29 0 8.58 0 13 0 C13.33 1.32 13.66 2.64 14 4 C9.05 4 4.1 4 -1 4 C-0.67 2.68 -0.34 1.36 0 0 Z " fill="#C8DBED" transform="translate(363,371)"/>
<path d="M0 0 C-1.39750048 3.15835107 -3.05198234 5.32272825 -5.5 7.75 C-6.1084375 8.36359375 -6.716875 8.9771875 -7.34375 9.609375 C-9 11 -9 11 -11 11 C-11 11.66 -11 12.32 -11 13 C-12.75 14.5078125 -12.75 14.5078125 -15 16.125 C-15.7425 16.66382813 -16.485 17.20265625 -17.25 17.7578125 C-17.8275 18.16773438 -18.405 18.57765625 -19 19 C-18.05340715 12.98713553 -6.29563628 0 0 0 Z " fill="#CBDEEB" transform="translate(412,290)"/>
<path d="M0 0 C0.99 0 1.98 0 3 0 C3 6.27 3 12.54 3 19 C2.01 19 1.02 19 0 19 C0 12.73 0 6.46 0 0 Z " fill="#ACB5BC" transform="translate(378,337)"/>
<path d="M0 0 C0.99 0 1.98 0 3 0 C3.21914062 0.61746094 3.43828125 1.23492187 3.6640625 1.87109375 C5.75742152 7.46189405 8.21293351 12.16559484 11.73046875 16.9921875 C13.01244243 19.01967818 13.56389885 20.65661311 14 23 C8.81661873 19.22014174 6.31112809 15.5871528 3.625 9.8125 C3.27050781 9.08869141 2.91601562 8.36488281 2.55078125 7.61914062 C0 2.32553089 0 2.32553089 0 0 Z " fill="#C0DEEA" transform="translate(165,316)"/>
<path d="M0 0 C0.66 0 1.32 0 2 0 C2 6.27 2 12.54 2 19 C1.01 19 0.02 19 -1 19 C-1.02683987 16.02077407 -1.04676037 13.04178705 -1.0625 10.0625 C-1.07087891 9.21236328 -1.07925781 8.36222656 -1.08789062 7.48632812 C-1.09111328 6.67744141 -1.09433594 5.86855469 -1.09765625 5.03515625 C-1.10289307 4.2862915 -1.10812988 3.53742676 -1.11352539 2.76586914 C-1 1 -1 1 0 0 Z " fill="#D4E2E9" transform="translate(360,438)"/>
<path d="M0 0 C0.81082031 0.00064453 1.62164062 0.00128906 2.45703125 0.00195312 C5.92356041 0.02773723 8.55362716 0.08037572 11.875 1.1875 C11.875 1.8475 11.875 2.5075 11.875 3.1875 C11.30056152 3.18226318 10.72612305 3.17702637 10.13427734 3.17163086 C7.50619623 3.15071424 4.87813271 3.13779341 2.25 3.125 C1.34636719 3.11662109 0.44273437 3.10824219 -0.48828125 3.09960938 C-5.15404289 3.08258105 -9.53513285 3.21920577 -14.125 4.1875 C-14.125 3.5275 -14.125 2.8675 -14.125 2.1875 C-9.43173094 -0.2161378 -5.13813749 -0.07835041 0 0 Z " fill="#CEE3EA" transform="translate(248.125,310.8125)"/>
<path d="M0 0 C6.44790362 0.16533086 10.3592244 3.95147576 15 8 C15.87591797 8.76183594 15.87591797 8.76183594 16.76953125 9.5390625 C18 11 18 11 18 14 C14.25913583 12.75304528 12.74204747 10.80733432 10 8 C6.80245513 5.20214824 4.0256424 3.38022025 0 2 C0 1.34 0 0.68 0 0 Z " fill="#C6E0EA" transform="translate(364,231)"/>
<path d="M0 0 C3.36050723 0.24892646 4.11509305 1.13326564 6.375 3.75 C6.78878906 4.28367187 7.20257813 4.81734375 7.62890625 5.3671875 C9.80041009 7.95319492 12.35607657 9.90945589 15 12 C14.67 12.99 14.34 13.98 14 15 C12.03483377 13.25719203 10.07799631 11.50635594 8.125 9.75 C7.56941406 9.25886719 7.01382813 8.76773437 6.44140625 8.26171875 C3.64150364 5.73168627 1.34491479 3.57508995 0 0 Z " fill="#CFDFEC" transform="translate(180,464)"/>
<path d="M0 0 C0.6875 2.0625 0.6875 2.0625 1 4 C-6.75 5 -6.75 5 -9 5 C-9.66 5.66 -10.32 6.32 -11 7 C-10.62118922 4.25362183 -10.22167713 3.19950942 -8.125 1.3125 C-4.91782756 -0.66840062 -3.65108617 -1.21702872 0 0 Z " fill="#36B5F3" transform="translate(303,332)"/>
<path d="M0 0 C1.7325 0.928125 1.7325 0.928125 3.5 1.875 C7.60313625 3.94122218 11.51700017 5.03935718 16 6 C16 6.99 16 7.98 16 9 C9.22832522 8.10335532 4.77865783 7.03016614 0 2 C0 1.34 0 0.68 0 0 Z " fill="#2D314B" transform="translate(212,372)"/>
<path d="M0 0 C5 1.66666667 10 3.33333333 15 5 C15 5.99 15 6.98 15 8 C9.86865375 7.48686537 5.25162208 5.94265013 1 3 C0.67 2.01 0.34 1.02 0 0 Z " fill="#2F3853" transform="translate(294,342)"/>
<path d="M0 0 C1.11375 0.61875 2.2275 1.2375 3.375 1.875 C8.08414891 4.25489246 12.81789994 5.19295163 18 6 C16.68 6.33 15.36 6.66 14 7 C14 7.66 14 8.32 14 9 C7.86378047 7.83623423 4.43919633 6.43919633 0 2 C0 1.34 0 0.68 0 0 Z " fill="#303B56" transform="translate(193,425)"/>
<path d="M0 0 C0.33 0 0.66 0 1 0 C1 5.28 1 10.56 1 16 C-0.32 16.33 -1.64 16.66 -3 17 C-2.54775239 11.08507728 -1.8417395 5.64800112 0 0 Z " fill="#1093C9" transform="translate(315,379)"/>
<path d="M0 0 C0.66 0 1.32 0 2 0 C2.67012098 6.19861907 0.24947173 11.35623611 -2 17 C-2.66 17 -3.32 17 -4 17 C-2.91103333 11.24237834 -1.70663707 5.60752181 0 0 Z " fill="#058CBE" transform="translate(302,375)"/>
<path d="M0 0 C0.66 0 1.32 0 2 0 C0.07289294 11.52164009 0.07289294 11.52164009 -2 17 C-2.66 17 -3.32 17 -4 17 C-3.35729017 11.0870696 -1.80996216 5.65755469 0 0 Z " fill="#048BBD" transform="translate(249,360)"/>
<path d="M0 0 C0.66 0 1.32 0 2 0 C0.91103333 5.75762166 -0.29336293 11.39247819 -2 17 C-2.66 17 -3.32 17 -4 17 C-2.91103333 11.24237834 -1.70663707 5.60752181 0 0 Z " fill="#028ABB" transform="translate(289,371)"/>
<path d="M0 0 C0.66 0.66 1.32 1.32 2 2 C1.48616214 4.62825112 0.8843344 7.06873141 0.125 9.625 C-0.17470703 10.68460937 -0.17470703 10.68460937 -0.48046875 11.765625 C-0.9764685 13.51343363 -1.4868942 15.25713649 -2 17 C-2.99 17 -3.98 17 -5 17 C-3.35 11.39 -1.7 5.78 0 0 Z " fill="#058BBC" transform="translate(276,367)"/>
<path d="M0 0 C5.19209404 -0.21192221 9.126739 0.4087311 14 2 C14 2.66 14 3.32 14 4 C7.07 3.505 7.07 3.505 0 3 C0 2.01 0 1.02 0 0 Z " fill="#AFD8EB" transform="translate(311,332)"/>
<path d="M0 0 C1.91731918 0.11455681 3.8338675 0.24206258 5.75 0.375 C7.35101563 0.47941406 7.35101563 0.47941406 8.984375 0.5859375 C11.80206432 0.9728223 13.5830366 1.55686166 16 3 C16 3.66 16 4.32 16 5 C10.72 4.01 5.44 3.02 0 2 C0 1.34 0 0.68 0 0 Z " fill="#B9DCEA" transform="translate(331,280)"/>
<path d="M0 0 C0.66 0 1.32 0 2 0 C0.07289294 11.52164009 0.07289294 11.52164009 -2 17 C-2.66 17 -3.32 17 -4 17 C-3.52294177 14.72872279 -3.04328294 12.45799168 -2.5625 10.1875 C-2.29566406 8.92292969 -2.02882813 7.65835937 -1.75390625 6.35546875 C-1 3 -1 3 0 0 Z " fill="#048ABB" transform="translate(262,364)"/>
<path d="M0 0 C5.98511371 0.34302035 10.75117306 0.82307843 16 4 C15.34 4.66 14.68 5.32 14 6 C13.40832031 5.79503906 12.81664062 5.59007812 12.20703125 5.37890625 C8.16339184 4.0002429 4.23144751 2.68249153 0 2 C0 1.34 0 0.68 0 0 Z " fill="#CDE2EA" transform="translate(272,257)"/>
<path d="M0 0 C3.63 0 7.26 0 11 0 C11 0.99 11 1.98 11 3 C7.37 3 3.74 3 0 3 C0 2.01 0 1.02 0 0 Z " fill="#D4E3EA" transform="translate(344,424)"/>
<path d="M0 0 C1.41719242 0.62380692 2.8337306 1.2491003 4.25 1.875 C5.03890625 2.22304688 5.8278125 2.57109375 6.640625 2.9296875 C8.78868608 3.90413905 10.89829202 4.92986429 13 6 C12.67 6.66 12.34 7.32 12 8 C7.48349806 7.46864683 4.57941844 5.76591425 1 3 C0.67 2.01 0.34 1.02 0 0 Z " fill="#353C55" transform="translate(231,319)"/>
<path d="M0 0 C1.32830615 3.98491845 0.23204404 5.40048548 -1.4375 9.1875 C-1.91058594 10.27417969 -2.38367188 11.36085938 -2.87109375 12.48046875 C-3.42990234 13.72763672 -3.42990234 13.72763672 -4 15 C-4.66 15 -5.32 15 -6 15 C-5.57388649 13.24719267 -5.13360733 11.49782565 -4.6875 9.75 C-4.44386719 8.77546875 -4.20023437 7.8009375 -3.94921875 6.796875 C-3.00347644 4.01024335 -1.89291287 2.22695632 0 0 Z " fill="#A6AFB7" transform="translate(277,346)"/>
<path d="M0 0 C1.43791516 0.14168137 2.8753237 0.28851043 4.3125 0.4375 C5.11300781 0.51871094 5.91351563 0.59992188 6.73828125 0.68359375 C9 1 9 1 12 2 C12 2.66 12 3.32 12 4 C8.04 3.67 4.08 3.34 0 3 C0 2.01 0 1.02 0 0 Z " fill="#B2DAEB" transform="translate(214,417)"/>
<path d="M0 0 C-0.33 0.99 -0.66 1.98 -1 3 C-4.3 3.33 -7.6 3.66 -11 4 C-11 3.34 -11 2.68 -11 2 C-7.17010894 0.19769832 -4.21878192 -0.19622241 0 0 Z " fill="#B2D9EB" transform="translate(208,417)"/>
<path d="M0 0 C0.66 0.33 1.32 0.66 2 1 C1.71640113 2.4391134 1.42278601 3.87625518 1.125 5.3125 C0.96257812 6.11300781 0.80015625 6.91351563 0.6328125 7.73828125 C0 10 0 10 -2 13 C-2.66 13 -3.32 13 -4 13 C-3.79503906 12.39671875 -3.59007812 11.7934375 -3.37890625 11.171875 C-2.97478516 9.97304688 -2.97478516 9.97304688 -2.5625 8.75 C-2.29566406 7.96109375 -2.02882813 7.1721875 -1.75390625 6.359375 C-1.08045292 4.25178012 -0.50849405 2.15246027 0 0 Z " fill="#A8B1B8" transform="translate(263,381)"/>
<path d="M0 0 C0 0.66 0 1.32 0 2 C-4.29 2.66 -8.58 3.32 -13 4 C-12.67 3.01 -12.34 2.02 -12 1 C-7.9472484 0.01751476 -4.16138263 -0.08159574 0 0 Z " fill="#CEE3EA" transform="translate(229,364)"/>
<path d="M0 0 C0.99 0 1.98 0 3 0 C3 2.97 3 5.94 3 9 C2.01 9 1.02 9 0 9 C0 6.03 0 3.06 0 0 Z " fill="#D8E4E9" transform="translate(319,422)"/>
<path d="M0 0 C0.79921875 0.01804687 1.5984375 0.03609375 2.421875 0.0546875 C3.02515625 0.07789063 3.6284375 0.10109375 4.25 0.125 C1.24559979 2.12793347 -0.45993945 2.61771626 -3.9375 3.25 C-5.28908203 3.50136719 -5.28908203 3.50136719 -6.66796875 3.7578125 C-7.35503906 3.87898438 -8.04210937 4.00015625 -8.75 4.125 C-8.75 3.465 -8.75 2.805 -8.75 2.125 C-5.68753253 0.34090198 -3.52920727 -0.10380021 0 0 Z " fill="#C3D7DE" transform="translate(286.75,387.875)"/>
<path d="M0 0 C1.051875 0.433125 1.051875 0.433125 2.125 0.875 C5.05452503 2.02133588 8.00921653 3.02625654 11 4 C10.01 4.495 10.01 4.495 9 5 C9 5.66 9 6.32 9 7 C5.56072421 5.7580393 2.74792181 4.44259716 0 2 C0 1.34 0 0.68 0 0 Z " fill="#38455F" transform="translate(250,266)"/>
<path d="M0 0 C8.57142857 1 8.57142857 1 12 2 C12 2.66 12 3.32 12 4 C7.97007218 3.44687265 3.97977076 2.8441938 0 2 C0 1.34 0 0.68 0 0 Z " fill="#BCDCE8" transform="translate(250,363)"/>
<path d="M0 0 C0 0.66 0 1.32 0 2 C-3.3 2.33 -6.6 2.66 -10 3 C-10 2.34 -10 1.68 -10 1 C-6.52674819 -0.1577506 -3.63932552 -0.06866652 0 0 Z " fill="#CDE2EA" transform="translate(269,257)"/>
<path d="M0 0 C3.96 0.99 3.96 0.99 8 2 C7.34 2.66 6.68 3.32 6 4 C3.27130593 3.96712417 0.7033382 3.43602229 -2 3 C-1.34 2.01 -0.68 1.02 0 0 Z " fill="#2EB3F3" transform="translate(221,415)"/>
<path d="M0 0 C-1.65 1.32 -3.3 2.64 -5 4 C-5.33 3.34 -5.66 2.68 -6 2 C-8.31 2 -10.62 2 -13 2 C-13 1.67 -13 1.34 -13 1 C-11.20994059 0.63779734 -9.41787943 0.28547531 -7.625 -0.0625 C-6.12839844 -0.35833984 -6.12839844 -0.35833984 -4.6015625 -0.66015625 C-2 -1 -2 -1 0 0 Z " fill="#2D3A6A" transform="translate(412,314)"/>
<path d="M0 0 C2.9425963 0.30652045 5.34542308 0.67271154 8 2 C7.67 2.99 7.34 3.98 7 5 C4.03 4.01 1.06 3.02 -2 2 C-1.34 1.34 -0.68 0.68 0 0 Z " fill="#7DD1F4" transform="translate(280,256)"/>
<path d="M0 0 C3.96 1.98 3.96 1.98 8 4 C8 4.99 8 5.98 8 7 C4.66272214 5.82744291 2.22562513 4.81131596 0 2 C0 1.34 0 0.68 0 0 Z " fill="#363D56" transform="translate(212,372)"/>
<path d="M0 0 C3.16115776 1.36983503 3.9927092 1.9890638 6 5 C6 5.99 6 6.98 6 8 C5.34 8 4.68 8 4 8 C0 2.58823529 0 2.58823529 0 0 Z " fill="#C2DEE9" transform="translate(383,247)"/>
<path d="M0 0 C0.66 0 1.32 0 2 0 C4.1875 2.3125 4.1875 2.3125 6 5 C5.67 5.99 5.34 6.98 5 8 C2.5 5.6875 2.5 5.6875 0 3 C0 2.01 0 1.02 0 0 Z " fill="#CFE3E9" transform="translate(173,331)"/>
<path d="M0 0 C0 0.66 0 1.32 0 2 C-4.455 2.495 -4.455 2.495 -9 3 C-9 2.34 -9 1.68 -9 1 C-5.92677456 0.08941469 -3.19902639 -0.08886184 0 0 Z " fill="#C5DFEA" transform="translate(325,281)"/>
<path d="M0 0 C0 0.66 0 1.32 0 2 C-2.64 2.33 -5.28 2.66 -8 3 C-8 2.34 -8 1.68 -8 1 C-5.29120665 -0.35439668 -2.99066732 -0.06501451 0 0 Z " fill="#BEDDEA" transform="translate(304,334)"/>
<path d="M0 0 C2.96175123 0.61277612 4.38058783 1.25372522 7 3 C7 3.66 7 4.32 7 5 C2.25 3.125 2.25 3.125 0 2 C0 1.34 0 0.68 0 0 Z " fill="#C7E1EA" transform="translate(262,313)"/>
<path d="M0 0 C5.875 3.625 5.875 3.625 7 7 C4.625 6.3125 4.625 6.3125 2 5 C0.6875 2.375 0.6875 2.375 0 0 Z " fill="#374965" transform="translate(312,287)"/>
</svg>
